<svg width="40" height="40" viewBox="0 0 40 40" fill="none" xmlns="http://www.w3.org/2000/svg">
<path d="M15.0002 36.6668C15.9206 36.6668 16.6668 35.9206 16.6668 35.0002C16.6668 34.0797 15.9206 33.3335 15.0002 33.3335C14.0797 33.3335 13.3335 34.0797 13.3335 35.0002C13.3335 35.9206 14.0797 36.6668 15.0002 36.6668Z" stroke="#F4F4F4" stroke-width="3" stroke-linecap="round" stroke-linejoin="round"/>
<path d="M33.3334 36.6668C34.2539 36.6668 35.0001 35.9206 35.0001 35.0002C35.0001 34.0797 34.2539 33.3335 33.3334 33.3335C32.4129 33.3335 31.6667 34.0797 31.6667 35.0002C31.6667 35.9206 32.4129 36.6668 33.3334 36.6668Z" stroke="#F4F4F4" stroke-width="3" stroke-linecap="round" stroke-linejoin="round"/>
<path d="M1.66675 1.66675H8.33341L12.8001 23.9834C12.9525 24.7507 13.3699 25.44 13.9793 25.9306C14.5887 26.4211 15.3512 26.6817 16.1334 26.6667H32.3334C33.1156 26.6817 33.8781 26.4211 34.4875 25.9306C35.0969 25.44 35.5143 24.7507 35.6667 23.9834L38.3334 10.0001H10.0001" stroke="#F4F4F4" stroke-width="3" stroke-linecap="round" stroke-linejoin="round"/>
</svg>
