<svg width="1920" height="450" viewBox="0 0 1920 450" fill="none" xmlns="http://www.w3.org/2000/svg">
<g clip-path="url(#clip0)">
<path opacity="0.85" d="M1920 0H0V449H1920V0Z" fill="#FAAB2A"/>
<path d="M1639.62 245.74L1626.52 246.04L1619.82 246.14C1617.62 246.14 1615.32 246.14 1613.12 246.14H1612.72V245.74V234.54V234.04H1613.22L1626.42 234.14C1630.82 234.14 1635.22 234.24 1639.62 234.34H1639.92V234.64C1639.92 236.54 1639.82 238.44 1639.82 240.34L1639.62 245.74ZM1639.62 245.74L1639.52 240.04C1639.52 238.14 1639.42 236.34 1639.42 234.54L1639.72 234.84C1635.32 234.84 1630.92 235.04 1626.52 235.04L1613.32 235.14L1613.82 234.64L1613.72 245.84L1613.32 245.34C1615.52 245.34 1617.72 245.34 1619.82 245.34L1626.42 245.44L1639.62 245.74Z" fill="#EBEBEB"/>
<path d="M1654.42 259.84L1641.32 260.14L1634.62 260.24C1632.42 260.24 1630.12 260.24 1627.92 260.24H1627.42V259.84V248.64V248.14H1627.92L1641.12 248.24C1645.52 248.24 1649.92 248.34 1654.32 248.44H1654.62V248.74C1654.62 250.64 1654.52 252.54 1654.52 254.44L1654.42 259.84ZM1654.42 259.84L1654.32 254.14C1654.32 252.24 1654.22 250.44 1654.22 248.64L1654.52 248.94C1650.12 248.94 1645.72 249.14 1641.32 249.14L1628.12 249.24L1628.62 248.74L1628.32 259.84L1627.92 259.34C1630.12 259.34 1632.32 259.34 1634.42 259.34L1641.02 259.44L1654.42 259.84Z" fill="#EBEBEB"/>
<path d="M959.72 413.64C1053.77 413.64 1130.02 405.671 1130.02 395.84C1130.02 386.009 1053.77 378.04 959.72 378.04C865.666 378.04 789.42 386.009 789.42 395.84C789.42 405.671 865.666 413.64 959.72 413.64Z" fill="#BB7E1B"/>
<path d="M447.22 275.64H410.42L389.32 170.54L423.02 155.04L447.22 275.64Z" fill="#37474F"/>
<path d="M552.62 275.64H447.22L423.02 155.04H528.42L552.62 275.64Z" fill="#455A64"/>
<path d="M428.22 219.24H371.82V335.04H428.22V219.24Z" fill="#37474F"/>
<path d="M579.62 335.04H564.22L541.22 219.24H579.62V335.04Z" fill="#37474F"/>
<path d="M459.32 219.24H428.32V335.04H459.32V219.24Z" fill="#455A64"/>
<path d="M610.62 219.24H579.62V335.04H610.62V219.24Z" fill="#455A64"/>
<path d="M579.72 275.64H459.32V335.04H579.72V275.64Z" fill="#455A64"/>
<path d="M579.72 249.94H459.32V275.84H579.72V249.94Z" fill="#455A64"/>
<path d="M435.92 219.24L447.62 219.04L459.32 218.94H459.72V219.34L459.82 232.94V246.54C459.82 255.54 459.92 264.64 459.82 273.64C459.72 282.64 459.82 291.74 459.72 300.74C459.62 309.74 459.52 318.84 459.32 327.84C459.12 318.84 459.02 309.74 458.92 300.74C458.82 291.74 458.82 282.64 458.82 273.64C458.82 264.64 458.82 255.54 458.82 246.54L458.92 232.94L459.02 219.34L459.42 219.74L447.72 219.64L435.92 219.24Z" fill="#263238"/>
<path d="M579.62 219.24C579.82 228.34 580.02 237.34 580.12 246.44L580.22 273.64L580.12 300.84L579.92 314.44L579.62 328.04L579.32 314.44L579.12 300.84L579.02 273.64L579.12 246.44C579.32 237.34 579.42 228.24 579.62 219.24Z" fill="#263238"/>
<path d="M579.62 275.64C569.62 275.84 559.52 276.04 549.52 276.04L519.42 276.14L489.32 276.04L474.32 275.84L459.32 275.54L474.32 275.24L489.32 275.04L519.42 274.94L549.52 275.04C559.62 275.24 569.62 275.34 579.62 275.64Z" fill="#263238"/>
<path d="M579.62 249.94C569.62 250.14 559.52 250.34 549.52 250.34L519.42 250.44L489.32 250.34L474.32 250.14L459.32 249.84L474.32 249.54L489.32 249.34L519.42 249.24L549.52 249.34C559.62 249.54 569.62 249.64 579.62 249.94Z" fill="#263238"/>
<path d="M393.32 335.04L392.52 344.34L390.72 366.04H382.62L380.82 344.34L380.02 335.04H393.32Z" fill="#C7C7C7"/>
<path d="M380.02 335.04H393.32L392.52 344.34H380.82L380.02 335.04Z" fill="#A6A6A6"/>
<path d="M450.42 335.04L449.62 344.34L447.92 366.04H439.72L437.92 344.34L437.12 335.04H450.42Z" fill="#C7C7C7"/>
<path d="M437.12 335.04H450.42L449.62 344.34H437.92L437.12 335.04Z" fill="#A6A6A6"/>
<path d="M545.12 335.04L544.42 344.34L542.62 366.04H534.42L532.62 344.34L531.92 335.04H545.12Z" fill="#C7C7C7"/>
<path d="M531.92 335.04H545.12L544.42 344.34H532.62L531.92 335.04Z" fill="#A6A6A6"/>
<path d="M602.32 335.04L601.52 344.34L599.72 366.04H591.62L589.82 344.34L589.02 335.04H602.32Z" fill="#C7C7C7"/>
<path d="M602.32 335.04L601.52 344.34H589.82L589.02 335.04H602.32Z" fill="#A6A6A6"/>
<path d="M740.32 449.04L795.22 448.84L850.02 448.74L959.72 448.54L1069.42 448.74L1124.22 448.84L1179.12 449.04L1124.22 449.34H1069.42L959.72 449.54L850.02 449.34H795.22L740.32 449.04Z" fill="#263238"/>
<path d="M1480.22 330.64C1466.92 348.64 1453.02 369.64 1449.62 392.24C1449.62 392.64 1450.12 392.74 1450.22 392.34C1451.72 386.14 1453.72 380.14 1456.12 374.24C1464.92 371.84 1473.52 369.84 1478.12 361.14C1482.82 352.24 1482.22 340.54 1481.32 330.84C1481.22 330.34 1480.52 330.34 1480.22 330.64Z" fill="#2B94F9"/>
<path d="M1456.32 374.14C1462.32 360.74 1470.02 347.24 1479.72 336.24C1479.82 336.14 1479.92 336.24 1479.82 336.34C1473.42 344.24 1468.52 352.74 1463.82 361.44C1468.22 356.94 1473.12 352.94 1477.22 348.24C1477.32 348.14 1477.42 348.24 1477.32 348.34C1473.22 353.34 1468.62 358.74 1463.22 362.44C1461.72 365.14 1460.32 367.74 1458.82 370.44L1459.92 369.84C1460.02 369.84 1460.02 369.94 1460.02 369.94C1459.62 370.14 1459.22 370.34 1458.72 370.54C1458.02 371.84 1457.32 373.04 1456.62 374.34C1456.52 374.64 1456.12 374.34 1456.32 374.14Z" fill="#263238"/>
<path d="M1460.72 369.44C1464.32 367.44 1467.72 365.14 1470.92 362.64C1471.02 362.54 1471.12 362.74 1471.02 362.74C1467.92 365.44 1464.52 367.74 1460.82 369.74C1460.72 369.74 1460.62 369.74 1460.62 369.64C1460.62 369.54 1460.72 369.44 1460.72 369.44Z" fill="#263238"/>
<path d="M1448.12 388.94C1448.12 389.04 1448.32 389.14 1448.42 389.14C1448.52 389.14 1448.62 389.04 1448.62 388.94C1448.72 381.44 1448.62 374.04 1448.72 366.54C1450.62 362.64 1454.72 360.54 1457.62 357.44C1459.62 355.14 1461.42 352.74 1462.92 350.04C1466.32 343.64 1468.42 336.64 1469.12 329.44C1469.92 321.44 1466.92 295.14 1463.52 296.04C1461.82 296.54 1456.12 309.54 1454.62 313.84C1452.22 320.94 1450.42 328.24 1449.32 335.64C1446.62 353.24 1446.82 371.24 1448.12 388.94Z" fill="#2B94F9"/>
<path d="M1448.12 356.74C1448.52 347.34 1450.62 337.84 1452.62 328.64C1454.72 318.74 1457.22 309.54 1462.32 300.74C1462.42 300.64 1462.52 300.64 1462.52 300.74C1462.52 300.74 1462.62 300.84 1462.52 300.94C1459.12 307.74 1456.52 314.94 1454.72 322.34C1455.02 321.84 1455.52 321.34 1455.82 320.84C1455.92 320.64 1456.32 320.84 1456.12 321.04C1455.72 321.84 1455.12 322.54 1454.52 323.24C1454.52 323.24 1454.52 323.24 1454.42 323.24C1452.72 330.24 1451.42 337.44 1450.32 344.64L1450.52 344.34H1450.62C1450.62 344.34 1450.62 344.34 1450.62 344.44C1450.52 344.64 1450.32 344.94 1450.22 345.14C1449.72 348.74 1449.22 352.44 1448.72 356.04C1455.22 350.44 1460.72 343.94 1463.92 335.94H1464.02C1460.92 344.34 1456.12 351.74 1448.72 356.84C1448.62 357.84 1448.42 358.74 1448.32 359.74C1448.32 359.94 1447.92 359.84 1447.92 359.74C1447.92 358.84 1447.92 358.04 1448.02 357.14C1448.02 357.04 1447.92 356.84 1448.12 356.74Z" fill="#263238"/>
<path d="M1451.12 343.14C1456.12 335.74 1460.72 328.54 1464.32 320.34C1464.32 320.24 1464.52 320.34 1464.52 320.44C1461.42 328.54 1457.22 336.84 1451.42 343.34C1451.22 343.44 1451.02 343.24 1451.12 343.14Z" fill="#263238"/>
<path d="M1457.72 318.54C1459.72 314.94 1461.92 311.34 1463.82 307.64C1463.92 307.54 1464.02 307.64 1464.02 307.74C1462.42 311.64 1460.42 315.34 1458.02 318.74C1457.92 318.84 1457.82 318.84 1457.72 318.84C1457.72 318.74 1457.62 318.64 1457.72 318.54Z" fill="#263238"/>
<path d="M1443.12 367.34C1443.02 372.24 1442.42 377.24 1441.42 382.04C1441.52 382.54 1441.52 383.14 1441.62 383.64C1443.12 378.34 1444.02 372.84 1444.22 367.24C1444.32 367.04 1444.32 366.94 1444.22 366.74C1444.42 359.34 1443.92 351.84 1442.62 344.54C1440.32 330.84 1435.22 317.74 1425.72 307.44C1425.42 307.24 1425.02 307.24 1424.72 307.54L1424.62 307.64C1420.72 317.44 1422.12 329.14 1425.42 338.94C1427.22 344.24 1429.82 349.24 1433.02 353.74C1436.22 358.44 1440.42 362.34 1443.12 367.34Z" fill="#2B94F9"/>
<path d="M1426.82 312.14C1435.82 326.84 1442.12 344.24 1442.92 361.54C1442.92 361.84 1442.42 361.94 1442.42 361.64C1442.22 360.04 1441.92 358.54 1441.72 357.04C1437.92 353.44 1434.12 349.64 1431.42 345.14C1431.42 345.04 1431.52 344.94 1431.52 345.04C1434.62 348.84 1438.02 352.44 1441.52 355.94C1440.92 352.14 1440.12 348.34 1439.22 344.64C1438.92 344.34 1438.72 344.04 1438.52 343.84C1438.32 343.64 1438.62 343.34 1438.82 343.54L1439.02 343.74C1437.72 338.64 1436.12 333.64 1434.32 328.74C1432.02 325.94 1429.42 323.64 1427.82 320.34V320.24H1427.92C1429.32 322.14 1430.52 324.04 1432.12 325.84C1432.72 326.54 1433.42 327.24 1434.02 327.84C1431.92 322.54 1429.42 317.34 1426.62 312.44C1426.62 312.34 1426.72 312.24 1426.82 312.24C1426.72 312.04 1426.82 312.04 1426.82 312.14Z" fill="#263238"/>
<path d="M1428.62 330.24C1431.52 334.14 1434.92 337.94 1437.62 342.04C1437.72 342.14 1437.52 342.24 1437.42 342.14C1433.92 338.84 1430.92 334.34 1428.42 330.34C1428.32 330.24 1428.52 330.14 1428.62 330.24Z" fill="#263238"/>
<path d="M1438.02 342.94L1438.12 343.04V343.14H1438.02L1437.92 343.04V342.94C1437.92 342.84 1438.02 342.84 1438.02 342.94Z" fill="#263238"/>
<path d="M1412.62 340.34C1413.32 347.94 1417.32 356.94 1422.12 362.74C1424.22 365.24 1426.92 367.34 1429.82 368.84C1433.22 370.54 1436.72 372.44 1440.12 373.74C1441.82 377.94 1443.02 382.34 1443.82 386.74C1443.92 386.34 1444.02 385.94 1444.12 385.54C1441.92 366.44 1429.52 350.04 1413.72 339.54C1413.32 339.34 1412.92 339.44 1412.62 339.74C1412.62 339.94 1412.62 340.14 1412.62 340.34Z" fill="#2B94F9"/>
<path d="M1418.12 345.94C1418.02 345.84 1418.12 345.64 1418.32 345.74C1427.02 352.24 1433.92 360.74 1438.52 370.64C1438.62 370.94 1438.22 371.14 1438.12 370.84C1437.42 369.54 1436.62 368.34 1435.82 367.04C1432.22 366.34 1428.82 363.84 1426.12 361.44V361.34H1426.22C1427.62 362.64 1429.12 363.64 1430.82 364.54C1432.32 365.34 1433.92 365.74 1435.42 366.34C1434.12 364.24 1432.72 362.14 1431.22 360.24C1427.32 358.74 1423.62 356.74 1420.32 354.14C1420.22 354.04 1420.32 353.94 1420.42 353.94C1423.72 355.94 1427.02 357.74 1430.52 359.34C1428.32 356.44 1425.92 353.64 1423.42 351.04C1422.22 350.44 1420.92 349.74 1419.72 349.04C1419.62 349.04 1419.62 348.94 1419.62 348.94L1419.72 348.84C1420.72 349.24 1421.62 349.64 1422.52 350.24C1421.12 348.84 1419.72 347.34 1418.12 345.94Z" fill="#263238"/>
<path d="M1418.42 352.64C1418.62 352.74 1418.82 352.94 1419.02 353.04C1419.12 353.04 1419.02 353.14 1418.92 353.14C1418.72 353.04 1418.52 352.94 1418.32 352.74C1418.32 352.74 1418.22 352.64 1418.32 352.64C1418.32 352.54 1418.42 352.54 1418.42 352.64Z" fill="#263238"/>
<path d="M1469.02 428.14H1425.62L1429.12 388.64L1429.82 379.94H1464.72L1465.52 388.64L1469.02 428.14Z" fill="#455A64"/>
<path d="M1465.52 388.64H1429.12L1429.82 379.94H1464.72L1465.52 388.64Z" fill="#263238"/>
<path d="M1466.82 373.84H1427.82V382.44H1466.82V373.84Z" fill="#455A64"/>
<path d="M978.12 335.14C981.82 340.44 990.42 370.54 992.92 372.04C995.42 373.54 1005.42 377.54 1007.22 379.84C1009.02 382.14 1010.72 385.64 1009.02 386.64C1007.32 387.64 977.92 386.94 972.92 386.64C967.92 386.34 946.12 371.84 943.62 368.04C941.12 364.24 909.72 334.94 912.52 327.44C915.32 319.94 963.02 313.64 978.12 335.14Z" fill="#2B94F9"/>
<path opacity="0.1" d="M978.12 335.14C981.82 340.44 990.42 370.54 992.92 372.04C995.42 373.54 1005.42 377.54 1007.22 379.84C1009.02 382.14 1010.72 385.64 1009.02 386.64C1007.32 387.64 977.92 386.94 972.92 386.64C967.92 386.34 946.12 371.84 943.62 368.04C941.12 364.24 909.72 334.94 912.52 327.44C915.32 319.94 963.02 313.64 978.12 335.14Z" fill="black"/>
<path opacity="0.1" d="M986.82 357.44C979.72 360.84 972.42 364.44 972.42 364.44L957.12 378.54C950.82 374.44 944.82 369.94 943.62 368.04C941.12 364.24 909.72 334.94 912.52 327.44C915.32 319.94 963.22 313.64 978.22 335.24C980.12 338.04 983.62 348.44 986.82 357.44Z" fill="black"/>
<path d="M1002.72 382.54C1002.02 381.94 1001.32 381.54 1000.52 381.14C999.72 380.74 998.82 380.44 997.92 380.24C997.92 380.24 997.82 380.24 997.82 380.34C997.82 380.34 997.82 380.44 997.92 380.44C997.92 380.44 997.92 380.44 998.02 380.44C999.62 381.04 1001.02 382.04 1002.22 383.34C1003.42 384.44 1004.42 385.74 1005.22 387.14C1005.32 387.24 1005.52 387.14 1005.52 387.04C1005.02 385.24 1004.02 383.64 1002.72 382.54Z" fill="#263238"/>
<path d="M1007.12 381.04C1006.42 380.44 1005.72 380.04 1004.92 379.64C1004.12 379.24 1003.22 378.94 1002.32 378.74H1002.22V378.84C1003.82 379.44 1005.22 380.44 1006.42 381.74C1007.62 382.84 1008.62 384.14 1009.42 385.54C1009.52 385.64 1009.72 385.54 1009.72 385.44C1009.32 383.74 1008.42 382.14 1007.12 381.04Z" fill="#263238"/>
<path d="M929.52 351.64C924.42 346.44 918.52 342.04 913.22 337.04C910.12 334.34 907.32 331.14 905.02 327.74C904.92 327.64 904.82 327.74 904.82 327.84C906.72 330.84 908.82 333.74 911.12 336.54C913.52 339.34 916.02 341.94 918.72 344.34C923.92 349.24 929.62 353.74 934.22 359.24C936.92 362.24 939.12 365.54 940.92 369.14C940.92 369.24 941.12 369.14 941.12 369.04C938.72 362.34 934.52 356.74 929.52 351.64Z" fill="#263238"/>
<path d="M954.22 376.44C950.62 374.54 948.12 371.54 945.52 368.64C944.22 367.14 943.02 365.64 941.72 364.24C940.02 362.44 938.32 360.74 936.82 358.84C936.72 358.74 936.62 358.84 936.62 358.94C939.42 362.44 941.52 366.44 944.52 369.74C947.12 372.74 950.42 375.04 954.02 376.54C954.12 376.64 954.22 376.54 954.22 376.44Z" fill="#263238"/>
<path d="M896.92 287.14C901.42 298.04 884.92 328.24 879.12 333.54C873.32 338.84 855.02 351.84 853.82 354.34C852.62 356.84 854.42 373.04 855.92 374.74C857.42 376.44 863.32 377.84 865.02 379.34C866.42 380.64 868.82 383.74 866.92 385.64C865.02 387.54 841.02 386.64 838.82 385.64C836.62 384.64 823.02 352.04 823.02 346.04C823.02 340.04 817.62 286.54 836.62 278.34C855.62 270.14 890.42 271.34 896.92 287.14Z" fill="#2B94F9"/>
<path opacity="0.1" d="M896.92 287.14C901.42 298.04 884.92 328.24 879.12 333.54C873.32 338.84 855.02 351.84 853.82 354.34C852.62 356.84 854.42 373.04 855.92 374.74C857.42 376.44 863.32 377.84 865.02 379.34C866.42 380.64 868.82 383.74 866.92 385.64C865.02 387.54 841.02 386.64 838.82 385.64C836.62 384.64 823.02 352.04 823.02 346.04C823.02 340.04 817.62 286.54 836.62 278.34C855.62 270.14 890.42 271.34 896.92 287.14Z" fill="black"/>
<path d="M890.22 315.14C889.02 317.64 887.72 320.14 886.22 322.44C885.52 323.54 884.82 324.74 884.02 325.84C883.22 326.94 882.32 328.04 881.42 329.14C879.52 331.34 877.52 333.34 875.32 335.24C874.22 336.34 873.02 337.34 872.02 338.44C871.02 339.54 869.72 340.84 868.52 341.94C868.42 342.04 868.62 342.14 868.62 342.04C869.92 340.94 871.42 339.94 872.82 338.94C874.22 337.94 875.42 337.04 876.72 336.04C879.02 334.34 881.22 332.34 883.12 330.14C886.62 325.74 888.42 320.34 890.42 315.14C890.42 315.14 890.22 315.14 890.22 315.14Z" fill="#263238"/>
<path d="M907.82 285.04C900.32 294.44 894.92 305.54 891.32 316.94C890.82 318.54 890.32 320.14 889.82 321.74C889.32 323.34 889.02 325.24 888.42 326.84C888.42 326.94 888.52 327.04 888.62 326.84C889.12 325.34 889.82 323.94 890.42 322.54C891.02 321.14 891.52 319.74 892.12 318.44C893.22 315.64 894.42 312.94 895.52 310.14C897.72 304.64 900.12 299.04 902.82 293.74C904.42 290.74 906.12 287.94 908.02 285.14C908.02 285.04 907.82 284.94 907.82 285.04Z" fill="#263238"/>
<path d="M860.52 382.54C859.82 381.94 859.12 381.54 858.32 381.14C857.52 380.74 856.62 380.44 855.72 380.24C855.72 380.24 855.62 380.24 855.62 380.34C855.62 380.34 855.62 380.44 855.72 380.44C855.72 380.44 855.72 380.44 855.82 380.44C857.42 381.04 858.82 382.04 860.02 383.34C861.22 384.44 862.22 385.74 863.02 387.14C863.12 387.24 863.32 387.14 863.32 387.04C862.72 385.24 861.82 383.64 860.52 382.54Z" fill="#263238"/>
<path d="M864.92 381.04C864.22 380.44 863.52 380.04 862.72 379.64C861.92 379.24 861.02 378.94 860.12 378.74C860.02 378.74 859.92 378.84 860.02 378.94C861.62 379.54 863.02 380.54 864.22 381.84C865.42 382.94 866.42 384.24 867.22 385.64C867.32 385.74 867.52 385.64 867.52 385.54C867.12 383.74 866.22 382.14 864.92 381.04Z" fill="#263238"/>
<path opacity="0.1" d="M879.12 333.54C873.32 338.84 855.02 351.84 853.82 354.34C852.62 356.84 854.42 372.94 855.92 374.74C857.42 376.54 863.32 377.84 865.02 379.34C866.12 380.34 867.72 382.44 867.62 384.14C862.52 383.34 857.32 382.24 855.52 380.54C847.12 372.84 837.52 365.24 835.92 365.24C834.92 365.24 831.92 365.34 829.22 365.54C825.92 357.14 823.02 348.74 823.02 345.94C823.02 339.94 817.62 286.44 836.62 278.24C855.62 270.04 890.52 271.24 897.02 287.04C901.42 298.04 884.82 328.24 879.12 333.54Z" fill="black"/>
<path d="M1000.22 272.84C1000.22 272.84 976.02 210.14 965.32 204.94C954.62 199.74 941.12 268.74 947.62 278.94C954.12 289.14 980.42 295.14 982.42 294.84C984.42 294.54 1001.02 281.34 1000.22 272.84Z" fill="#2B94F9"/>
<g opacity="0.1">
<path opacity="0.1" d="M1000.22 272.84C1000.22 272.84 976.02 210.14 965.32 204.94C954.62 199.74 941.12 268.74 947.62 278.94C954.12 289.14 980.42 295.14 982.42 294.84C984.42 294.54 1001.02 281.34 1000.22 272.84Z" fill="black"/>
</g>
<path opacity="0.1" d="M982.32 294.84C980.42 295.24 954.02 289.14 947.52 278.94C944.82 274.64 945.62 259.94 948.32 244.74C955.42 244.34 974.72 243.24 976.02 243.74C976.92 244.14 987.22 253.14 995.12 260.24C998.22 267.74 1000.22 272.84 1000.22 272.84C1001.02 281.34 984.32 294.44 982.32 294.84Z" fill="black"/>
<path d="M837.92 231.74C840.22 228.64 835.22 223.14 829.42 222.94C823.62 222.74 811.62 233.54 813.02 235.24C814.42 236.94 833.42 237.94 837.92 231.74Z" fill="#2B94F9"/>
<path d="M981.62 350.04C976.22 349.24 954.72 382.84 943.72 386.94C932.72 391.04 869.12 386.14 859.42 379.74C849.72 373.34 828.62 344.54 823.02 336.34C817.42 328.14 795.52 314.84 791.72 303.04C787.92 291.24 796.12 258.14 802.52 248.94C808.92 239.74 830.42 225.04 844.62 228.64C858.82 232.24 904.62 268.64 914.52 263.94C924.02 259.44 952.62 241.14 971.02 248.84C989.42 256.54 1009.52 279.64 1010.22 293.64C1010.92 307.64 1006.82 317.64 1008.02 318.54C1009.42 319.64 1032.22 328.14 1035.52 329.74C1038.32 331.04 1030.12 344.44 1019.12 349.14C1010.22 353.04 988.32 351.04 981.62 350.04Z" fill="#2B94F9"/>
<path d="M834.12 228.94C831.02 229.44 827.92 230.24 825.02 231.44C823.62 232.04 822.22 232.74 820.92 233.54C819.52 234.34 818.22 235.44 816.82 236.34C816.72 236.44 816.82 236.54 816.92 236.54C818.32 235.74 819.72 235.04 821.12 234.44C822.62 233.74 824.02 233.14 825.52 232.54C828.42 231.34 831.22 230.04 834.22 229.14C834.22 229.04 834.22 228.94 834.12 228.94Z" fill="#263238"/>
<path d="M791.72 303.04C795.52 314.84 817.42 328.14 823.02 336.34C828.62 344.54 849.82 373.34 859.42 379.74C869.02 386.14 932.62 390.94 943.72 386.94C954.82 382.94 976.32 349.24 981.62 350.04C988.32 351.04 1010.22 353.04 1019.22 349.24C1030.12 344.64 1038.42 331.24 1035.62 329.84C1032.32 328.24 1009.42 319.74 1008.12 318.64C1007.02 317.64 1011.02 307.64 1010.32 293.74C1010.12 289.94 1008.12 285.34 1005.42 280.04C1001.92 278.44 999.72 283.84 1000.32 288.64C1000.92 293.44 1002.72 297.44 1002.92 305.24C1003.12 313.04 1000.32 323.54 995.82 326.24C986.12 332.04 974.82 319.04 969.22 320.64C963.62 322.24 956.72 328.44 956.62 331.84C956.52 335.24 959.02 342.24 958.82 342.64C958.62 343.04 949.62 353.94 945.62 356.84C941.62 359.74 934.52 361.94 934.52 361.94C937.92 361.84 941.22 361.34 944.42 360.34C943.62 360.74 929.72 369.84 923.92 370.04C918.02 370.24 880.62 372.34 868.72 370.14C856.82 367.94 836.22 326.74 818.82 321.54C801.42 316.34 799.92 298.44 800.22 291.74C800.52 285.04 817.02 270.44 816.22 259.94C815.62 252.54 808.42 249.94 802.22 249.84C795.82 259.84 788.12 291.64 791.72 303.04Z" fill="white"/>
<path d="M791.72 303.04C793.02 306.74 795.52 309.94 798.12 312.84C800.82 315.74 803.62 318.44 806.62 320.94L815.52 328.54C817.02 329.84 818.42 331.14 819.82 332.54C821.22 333.94 822.52 335.44 823.62 337.04C828.12 343.44 832.82 349.74 837.62 355.84C842.42 362.04 847.52 368.04 852.92 373.74C854.32 375.14 855.72 376.54 857.22 377.74C857.92 378.34 858.72 378.94 859.52 379.54C860.32 380.04 861.22 380.44 862.12 380.84C865.82 382.04 869.62 383.04 873.52 383.64C881.22 385.04 889.02 385.94 896.82 386.64C904.62 387.34 912.42 387.84 920.22 388.04C924.12 388.14 928.02 388.14 931.92 388.04C933.92 387.94 935.82 387.84 937.82 387.74C939.72 387.64 941.62 387.24 943.52 386.74C945.32 386.04 947.02 385.04 948.42 383.74C949.92 382.54 951.42 381.14 952.82 379.84C955.62 377.04 958.22 374.14 960.72 371.24C963.22 368.34 965.82 365.24 968.32 362.24C970.82 359.24 973.42 356.24 976.12 353.44C976.82 352.74 977.52 352.04 978.32 351.44C979.12 350.74 979.92 350.24 980.92 349.84C981.22 349.74 981.52 349.74 981.82 349.74L982.52 349.84L984.02 350.04L986.92 350.34C990.82 350.74 994.72 350.94 998.62 351.04C1002.52 351.14 1006.42 351.04 1010.32 350.74C1014.22 350.34 1018.12 349.74 1021.42 347.74C1024.82 345.84 1027.82 343.34 1030.42 340.44C1031.72 339.04 1032.82 337.44 1033.82 335.84C1034.32 335.04 1034.82 334.14 1035.22 333.34C1035.62 332.54 1035.82 331.64 1035.82 330.74C1035.72 330.34 1035.62 330.24 1035.12 330.04L1033.72 329.44L1031.02 328.34L1025.52 326.24L1014.62 321.94C1012.82 321.24 1011.02 320.44 1009.22 319.64L1008.52 319.34C1008.22 319.24 1007.92 319.04 1007.72 318.84C1007.52 318.54 1007.52 318.24 1007.52 317.94C1007.52 317.64 1007.52 317.44 1007.62 317.14C1007.72 316.14 1007.92 315.14 1008.12 314.24C1008.92 310.44 1009.52 306.54 1009.82 302.64C1010.02 300.74 1010.02 298.74 1010.02 296.84C1010.02 295.84 1010.02 294.84 1009.92 293.94C1009.82 292.94 1009.72 292.04 1009.52 291.14C1008.42 287.44 1006.92 283.84 1005.12 280.44L1005.32 280.64C1004.72 280.34 1004.12 280.34 1003.52 280.54C1002.92 280.84 1002.42 281.24 1002.12 281.84C1001.42 283.04 1000.92 284.34 1000.82 285.74C1000.62 287.14 1000.72 288.54 1001.02 289.94C1001.22 291.34 1001.52 292.74 1001.92 294.24C1003.42 299.94 1003.82 305.94 1003.12 311.84C1002.72 314.74 1001.92 317.64 1000.82 320.44C1000.22 321.84 999.52 323.24 998.72 324.44C998.32 325.04 997.82 325.64 997.22 326.14C996.62 326.64 996.02 327.04 995.32 327.44C993.92 328.14 992.42 328.44 990.92 328.54C989.42 328.54 987.92 328.34 986.42 327.94C983.62 327.04 980.92 325.84 978.32 324.44C977.02 323.74 975.72 323.04 974.42 322.44C973.22 321.84 971.82 321.44 970.42 321.24C970.12 321.24 969.72 321.24 969.42 321.34C969.12 321.44 968.72 321.54 968.42 321.64C967.72 321.94 967.12 322.14 966.42 322.54C963.82 323.84 961.52 325.64 959.62 327.74C958.62 328.74 957.82 329.94 957.32 331.24C957.22 331.54 957.12 331.84 957.12 332.14C957.12 332.44 957.12 332.84 957.12 333.14C957.22 333.84 957.32 334.54 957.42 335.24C957.72 336.64 958.02 338.04 958.42 339.44L959.02 341.54C959.12 341.94 959.22 342.34 959.22 342.64V342.74C959.22 342.84 959.22 342.84 959.22 342.94L959.12 343.14C959.02 343.24 959.02 343.34 958.92 343.44L958.62 343.84C957.72 344.94 956.72 346.14 955.82 347.24C953.92 349.44 951.92 351.64 949.92 353.74C948.92 354.84 947.82 355.84 946.72 356.74C945.62 357.64 944.32 358.44 943.02 359.14C940.42 360.44 937.62 361.54 934.82 362.44L934.72 361.74C936.42 361.74 938.02 361.54 939.72 361.24C941.32 361.04 943.02 360.64 944.62 360.14L947.62 359.14L944.92 360.74C940.62 363.44 936.22 365.84 931.72 368.04C930.62 368.54 929.42 369.04 928.22 369.54C927.02 370.04 925.72 370.34 924.42 370.44L916.82 370.74C906.72 371.14 896.72 371.54 886.62 371.44C881.62 371.44 876.52 371.34 871.52 370.74C870.92 370.64 870.22 370.54 869.62 370.44C869.02 370.34 868.32 370.24 867.72 369.94C866.52 369.44 865.42 368.84 864.42 368.04C862.42 366.44 860.62 364.74 858.92 362.84C855.52 359.14 852.42 355.14 849.32 351.14C846.22 347.14 843.12 343.24 839.92 339.34C836.72 335.44 833.32 331.74 829.62 328.34C827.72 326.64 825.72 325.14 823.62 323.74C822.52 323.04 821.42 322.54 820.32 322.04C819.12 321.64 817.92 321.24 816.72 320.74C811.92 318.84 807.92 315.54 805.22 311.14C802.62 306.74 801.02 301.84 800.52 296.74C800.42 295.44 800.32 294.24 800.32 292.94C800.32 292.34 800.32 291.64 800.42 291.04C800.52 290.44 800.72 289.74 800.92 289.14C801.92 286.84 803.22 284.64 804.72 282.64C807.62 278.54 810.72 274.54 813.12 270.14C814.42 267.94 815.42 265.64 816.02 263.24C817.42 258.14 814.72 252.84 809.72 251.14C807.32 250.24 804.82 249.74 802.32 249.74H802.42C800.22 253.74 798.42 257.94 797.02 262.34C795.62 266.74 794.42 271.14 793.52 275.64C792.52 280.14 791.82 284.64 791.42 289.24C791.22 291.54 791.12 293.84 791.12 296.14C790.82 298.54 791.12 300.84 791.72 303.04ZM791.72 303.04C791.12 300.84 790.82 298.54 790.82 296.24C790.82 293.94 790.82 291.64 791.12 289.34C791.52 284.74 792.22 280.24 793.22 275.74C794.22 271.24 795.32 266.74 796.72 262.44C798.02 258.04 799.82 253.74 802.02 249.74C804.52 249.74 807.02 250.24 809.42 251.14C811.82 252.04 813.82 253.74 815.12 256.04C816.22 258.34 816.52 260.94 815.92 263.44C815.32 265.94 814.32 268.24 813.02 270.44C810.52 274.84 807.42 278.84 804.62 283.04C803.12 285.04 801.92 287.24 800.82 289.54C800.62 290.14 800.42 290.74 800.32 291.34C800.22 291.94 800.22 292.54 800.22 293.24C800.22 294.54 800.32 295.74 800.42 297.04C800.82 302.04 802.42 306.94 805.02 311.24C807.72 315.54 811.72 318.84 816.42 320.64C817.62 321.14 818.82 321.44 820.02 321.94C821.22 322.44 822.32 322.94 823.42 323.64C825.52 324.94 827.62 326.54 829.42 328.24C833.12 331.64 836.62 335.34 839.82 339.24C843.02 343.14 846.12 347.14 849.22 351.04C852.32 354.94 855.42 358.94 858.82 362.64C860.52 364.54 862.32 366.24 864.32 367.74C865.32 368.54 866.42 369.14 867.52 369.64C868.72 370.04 869.92 370.24 871.12 370.34C876.12 370.84 881.12 370.94 886.22 370.94C896.32 370.94 906.32 370.64 916.42 370.14L923.92 369.84C925.12 369.74 926.32 369.44 927.52 368.94C928.72 368.54 929.82 368.04 931.02 367.54C935.52 365.34 939.92 362.84 944.22 360.14L944.52 360.84C942.92 361.34 941.22 361.74 939.52 362.04C937.82 362.34 936.12 362.44 934.42 362.54L932.02 362.64L934.32 361.84C939.82 359.94 945.32 357.84 949.12 353.34C951.12 351.24 953.12 349.04 955.02 346.84C955.92 345.74 956.92 344.64 957.82 343.44L958.12 343.04L958.22 342.84V342.74C958.22 342.44 958.12 342.04 958.02 341.74L957.42 339.64C957.02 338.24 956.62 336.84 956.42 335.34C956.32 334.64 956.12 333.84 956.12 333.14C956.12 332.74 956.12 332.34 956.12 332.04C956.12 331.64 956.22 331.24 956.32 330.84C956.92 329.44 957.72 328.14 958.82 327.04C960.82 324.84 963.22 323.04 965.92 321.64C966.62 321.34 967.22 321.04 967.92 320.74C968.32 320.64 968.62 320.44 969.02 320.34C969.42 320.24 969.82 320.14 970.22 320.24C971.72 320.34 973.22 320.84 974.62 321.54C976.02 322.14 977.22 322.84 978.52 323.54C981.02 324.94 983.72 326.14 986.42 326.94C989.12 327.84 992.02 327.64 994.62 326.44C995.92 325.84 996.92 324.94 997.72 323.74C998.52 322.54 999.22 321.34 999.72 319.94C1000.72 317.24 1001.52 314.44 1001.92 311.54C1002.72 305.74 1002.32 299.94 1000.82 294.34C1000.52 292.94 1000.22 291.44 999.92 290.04C999.62 288.54 999.62 287.04 999.82 285.54C999.92 284.04 1000.42 282.54 1001.22 281.24C1001.62 280.54 1002.32 279.94 1003.02 279.64C1003.82 279.34 1004.72 279.34 1005.52 279.74L1005.62 279.84L1005.72 279.94C1007.62 283.44 1009.12 287.14 1010.22 290.94C1010.42 291.94 1010.62 292.94 1010.62 293.94C1010.62 294.94 1010.72 295.94 1010.72 296.94C1010.72 298.94 1010.62 300.94 1010.52 302.84C1010.22 306.74 1009.62 310.64 1008.82 314.54C1008.62 315.54 1008.42 316.44 1008.32 317.44C1008.32 317.64 1008.32 317.94 1008.32 318.14C1008.32 318.34 1008.32 318.44 1008.42 318.64C1008.52 318.74 1008.72 318.84 1008.92 318.94L1009.52 319.24C1011.32 320.04 1013.12 320.74 1014.92 321.54L1025.82 325.74L1031.32 327.84L1034.02 328.94L1035.42 329.54C1035.72 329.64 1035.92 329.74 1036.22 329.94C1036.42 330.14 1036.62 330.44 1036.62 330.84C1036.62 331.84 1036.42 332.94 1035.92 333.84C1035.52 334.74 1035.02 335.64 1034.52 336.44C1031.32 341.44 1026.92 345.64 1021.72 348.64C1020.02 349.64 1018.12 350.34 1016.22 350.74C1014.32 351.14 1012.32 351.44 1010.32 351.64C1006.42 351.94 1002.42 352.04 998.52 351.94C994.62 351.84 990.72 351.54 986.82 351.14L983.92 350.84L982.42 350.64L981.72 350.54C981.52 350.54 981.32 350.54 981.12 350.64C980.22 350.94 979.42 351.44 978.72 352.14C978.02 352.74 977.22 353.44 976.62 354.14C973.82 356.94 971.32 359.94 968.82 362.84C966.32 365.74 963.82 368.84 961.22 371.84C958.62 374.84 956.02 377.74 953.22 380.54C951.82 381.94 950.42 383.24 948.82 384.54C947.32 385.84 945.62 386.84 943.72 387.64C941.82 388.14 939.82 388.54 937.92 388.64C935.92 388.84 934.02 388.94 932.02 388.94C928.12 389.04 924.22 389.04 920.22 388.94C912.42 388.74 904.52 388.14 896.72 387.44C888.92 386.74 881.12 385.74 873.42 384.34C869.52 383.74 865.72 382.74 862.02 381.44C861.12 381.14 860.22 380.64 859.32 380.14C858.52 379.54 857.72 378.94 857.02 378.34C855.52 377.04 854.12 375.74 852.72 374.34C847.32 368.64 842.32 362.54 837.52 356.44C832.72 350.34 828.02 343.94 823.52 337.54C822.42 335.94 821.22 334.44 819.72 333.04C818.32 331.64 816.92 330.34 815.42 329.04L806.52 321.34C803.52 318.74 800.72 316.04 798.12 313.14C795.52 309.94 793.02 306.84 791.72 303.04Z" fill="#DBDBDB"/>
<path d="M1028.62 338.24C1032.72 338.54 1038.62 332.84 1037.62 330.84C1036.62 328.84 1020.12 326.64 1019.02 328.04C1017.92 329.44 1024.12 337.94 1028.62 338.24Z" fill="#263238"/>
<path d="M998.92 315.24C998.92 315.04 998.52 315.34 998.42 315.54C997.02 320.04 994.72 325.04 990.22 325.14C990.12 325.14 990.02 325.34 990.22 325.44C995.32 326.34 998.32 319.74 998.92 315.24Z" fill="#263238"/>
<path d="M996.52 309.24C989.52 306.24 984.12 320.54 990.62 323.24C997.12 325.94 1002.32 311.74 996.52 309.24Z" fill="#263238"/>
<path d="M997.32 288.24C997.32 288.24 988.92 284.04 982.42 295.14L997.32 288.24Z" fill="#263238"/>
<path d="M970.72 262.74C970.72 262.74 929.42 209.74 917.62 207.94C905.82 206.14 913.02 275.94 922.12 283.84C931.22 291.74 958.22 289.84 960.02 288.94C961.82 288.04 973.92 270.74 970.72 262.74Z" fill="#2B94F9"/>
<path d="M964.12 277.14C967.32 271.34 925.22 216.04 916.72 215.44C908.22 214.84 917.02 274.44 921.42 279.84C925.82 285.24 950.82 289.44 953.12 286.94C960.12 279.54 964.12 277.14 964.12 277.14Z" fill="#F7A9A0"/>
<path d="M976.32 263.84C975.52 262.34 974.22 261.04 972.72 260.24C971.42 259.44 970.12 258.84 968.82 258.24C967.12 256.24 965.42 254.24 963.62 252.34C961.42 249.84 959.12 247.34 956.82 244.94C954.52 242.54 952.12 240.14 949.82 237.64C949.72 237.54 949.62 237.64 949.72 237.74C951.92 240.24 953.92 242.94 956.02 245.54C958.12 248.14 960.12 250.54 962.22 252.94C964.32 255.34 966.52 257.84 968.72 260.34C970.62 262.44 972.52 264.44 973.72 267.14C973.82 267.24 973.92 267.34 974.02 267.24C974.12 267.24 974.22 267.04 974.12 266.94C973.62 264.24 971.92 261.94 970.22 259.84C970.12 259.64 969.92 259.44 969.82 259.34C970.62 259.84 971.32 260.34 972.12 260.84C973.72 261.54 975.02 262.64 976.12 264.04C976.12 264.14 976.22 264.14 976.32 264.14C976.42 264.14 976.32 263.94 976.32 263.84Z" fill="#263238"/>
<path d="M924.62 287.14C921.12 284.94 919.42 280.64 918.22 276.94C917.62 274.84 916.92 272.64 916.32 270.54C915.72 268.44 915.02 266.04 914.62 263.84C914.62 263.74 914.42 263.74 914.42 263.84C914.82 266.24 914.92 268.64 915.32 270.94C915.72 273.34 916.22 275.74 916.92 278.04C917.12 278.64 917.32 279.34 917.52 279.94C917.42 281.14 917.52 282.34 917.82 283.54C918.42 285.14 919.42 286.54 920.72 287.64H920.82V287.54C919.82 286.24 919.02 284.84 918.52 283.24C918.32 282.64 918.22 282.04 918.02 281.34C918.42 282.24 918.92 283.14 919.62 284.04C920.82 285.64 922.42 286.84 924.22 287.54C924.32 287.54 924.52 287.54 924.52 287.34C924.72 287.24 924.72 287.14 924.62 287.14Z" fill="#263238"/>
<path d="M938.62 346.84C942.32 352.14 950.92 382.24 953.42 383.74C955.92 385.24 965.92 389.24 967.72 391.54C969.52 393.84 971.22 397.34 969.52 398.34C967.82 399.34 938.42 398.64 933.42 398.34C928.42 398.04 906.62 383.54 904.12 379.74C901.62 375.94 870.22 346.64 873.02 339.14C875.82 331.64 923.52 325.24 938.62 346.84Z" fill="#2B94F9"/>
<path d="M963.22 394.24C962.52 393.64 961.82 393.24 961.02 392.84C960.22 392.44 959.32 392.14 958.42 391.94C958.32 391.94 958.22 392.04 958.42 392.14C960.02 392.74 961.42 393.74 962.62 395.04C963.82 396.14 964.82 397.44 965.62 398.84C965.72 398.94 965.92 398.84 965.92 398.74C965.42 396.84 964.52 395.34 963.22 394.24Z" fill="#263238"/>
<path d="M967.62 392.64C966.92 392.04 966.22 391.64 965.42 391.24C964.62 390.84 963.72 390.54 962.82 390.34H962.72V390.44C964.32 391.04 965.72 392.04 966.92 393.34C968.12 394.44 969.12 395.74 969.92 397.14C970.02 397.24 970.22 397.14 970.22 397.04C969.82 395.34 968.92 393.84 967.62 392.64Z" fill="#263238"/>
<path d="M890.02 363.34C884.92 358.14 879.02 353.74 873.72 348.74C870.62 345.94 867.82 342.84 865.52 339.44C865.42 339.34 865.32 339.44 865.32 339.54C867.22 342.54 869.32 345.44 871.62 348.24C874.02 351.04 876.62 353.64 879.32 356.14C884.52 361.04 890.22 365.54 894.82 371.04C897.52 374.04 899.72 377.34 901.52 380.94C901.62 381.04 901.72 380.94 901.72 380.84C899.12 373.94 894.92 368.34 890.02 363.34Z" fill="#263238"/>
<path d="M949.62 372.94C948.72 370.04 947.82 367.14 946.82 364.24C944.92 358.64 942.72 353.14 940.92 347.44C939.82 344.24 939.12 340.94 938.82 337.64C938.82 337.54 938.62 337.54 938.62 337.64C938.92 343.44 939.92 349.24 941.92 354.74C943.82 360.54 945.92 366.34 948.12 372.04C949.42 375.34 950.82 378.54 952.12 381.84C952.22 381.94 952.32 381.94 952.32 381.84C951.32 378.84 950.52 375.94 949.62 372.94Z" fill="#263238"/>
<path d="M940.82 336.04C940.92 334.04 941.12 332.04 941.42 330.14C941.42 330.04 941.42 330.04 941.32 330.04C941.32 330.04 941.22 330.04 941.22 330.14C940.02 333.94 939.82 338.04 940.62 341.94C940.62 342.04 940.72 342.04 940.82 342.04L940.92 341.94C940.82 339.94 940.72 337.94 940.82 336.04Z" fill="#263238"/>
<path d="M914.72 388.04C911.12 386.14 908.62 383.14 906.02 380.24C904.72 378.74 903.52 377.34 902.22 375.94C900.52 374.14 898.82 372.44 897.32 370.54C897.22 370.44 897.12 370.54 897.12 370.64C899.92 374.14 902.02 378.14 905.12 381.44C907.72 384.44 911.02 386.74 914.62 388.24C914.72 388.24 914.82 388.14 914.72 388.04Z" fill="#263238"/>
<path d="M864.32 299.14C868.82 310.04 852.32 340.24 846.52 345.54C840.72 350.84 822.42 363.84 821.22 366.34C820.02 368.84 821.82 384.94 823.32 386.74C824.82 388.54 830.72 389.84 832.42 391.34C833.82 392.64 836.22 395.74 834.32 397.64C832.42 399.54 808.42 398.64 806.22 397.64C804.02 396.64 790.42 364.04 790.42 358.04C790.42 352.04 785.02 298.54 804.02 290.34C823.02 282.14 857.82 283.34 864.32 299.14Z" fill="#2B94F9"/>
<path d="M857.62 327.14C856.42 329.64 855.12 332.14 853.62 334.44C852.92 335.54 852.22 336.74 851.42 337.84C850.62 338.94 849.72 340.04 848.82 341.14C846.92 343.34 844.92 345.34 842.72 347.24C841.62 348.24 840.42 349.34 839.42 350.44C838.42 351.54 837.12 352.84 835.92 353.94C835.82 354.04 835.92 354.14 836.02 354.04C837.32 352.94 838.82 351.94 840.22 350.94C841.62 349.94 842.82 349.04 844.12 348.04C846.42 346.34 848.62 344.34 850.52 342.14C854.02 337.74 855.82 332.34 857.82 327.14C857.82 327.14 857.62 327.04 857.62 327.14Z" fill="#263238"/>
<path d="M875.22 296.94C867.72 306.34 862.32 317.44 858.72 328.84C858.22 330.44 857.72 332.04 857.22 333.64C856.72 335.24 856.42 337.14 855.82 338.74C855.82 338.84 855.92 338.94 856.02 338.74C856.52 337.24 857.22 335.84 857.82 334.44C858.42 333.04 858.92 331.64 859.52 330.34L862.92 322.04C865.12 316.54 867.52 310.94 870.22 305.64C871.72 302.64 873.52 299.84 875.42 297.04C875.42 297.04 875.32 296.84 875.22 296.94Z" fill="#263238"/>
<path d="M827.92 394.54C827.22 393.94 826.52 393.54 825.72 393.14C824.92 392.74 824.02 392.44 823.12 392.24C823.02 392.24 822.92 392.34 823.12 392.44C824.72 393.04 826.12 394.04 827.32 395.34C828.52 396.44 829.52 397.74 830.32 399.14C830.42 399.24 830.62 399.14 830.62 399.04C830.22 397.14 829.22 395.64 827.92 394.54Z" fill="#263238"/>
<path d="M832.32 392.94C831.62 392.34 830.92 391.94 830.12 391.54C829.32 391.14 828.42 390.84 827.52 390.64C827.42 390.64 827.32 390.74 827.52 390.84C829.12 391.44 830.52 392.44 831.72 393.74C832.92 394.84 833.92 396.14 834.72 397.54C834.82 397.64 835.02 397.54 835.02 397.44C834.52 395.64 833.62 394.14 832.32 392.94Z" fill="#263238"/>
<path d="M1079.92 212.64C1077.92 231.64 1060.92 245.44 1041.92 243.44C1034.52 242.64 1027.62 239.54 1022.12 234.54L1004.82 237.04L1013.52 222.04C1006.32 204.34 1014.82 184.14 1032.52 176.94C1050.22 169.74 1070.42 178.24 1077.62 195.94C1079.62 201.14 1080.42 206.94 1079.92 212.64Z" fill="white"/>
<path d="M1079.92 212.64C1079.22 219.04 1076.82 225.14 1072.92 230.14C1071.92 231.44 1070.92 232.64 1069.82 233.74C1068.62 234.84 1067.42 235.84 1066.22 236.84C1061.12 240.74 1054.92 243.04 1048.52 243.74C1046.92 243.94 1045.32 243.94 1043.72 243.84C1042.12 243.84 1040.52 243.64 1038.92 243.34C1032.52 242.14 1026.62 239.24 1021.82 234.84L1022.22 234.94L1004.92 237.54L1003.62 237.74L1004.22 236.64L1012.82 221.64V222.24C1005.52 204.34 1014.12 183.94 1032.02 176.64C1039.72 173.54 1048.32 173.24 1056.22 175.84C1061.22 177.54 1065.82 180.34 1069.52 184.04C1077.12 191.44 1081.02 202.04 1079.92 212.64ZM1079.92 212.64C1081.92 193.84 1068.32 176.94 1049.52 174.94C1046.62 174.64 1043.62 174.74 1040.72 175.14C1035.62 175.94 1030.72 177.84 1026.42 180.84C1022.22 183.84 1018.62 187.64 1016.02 192.14C1013.42 196.64 1011.92 201.64 1011.62 206.74C1011.32 211.84 1012.12 217.04 1014.02 221.84L1014.12 222.14L1013.92 222.44L1005.22 237.34L1004.62 236.44L1021.92 234.04H1022.12L1022.32 234.24C1026.92 238.54 1032.72 241.54 1038.92 242.74C1040.42 243.04 1042.02 243.24 1043.62 243.34C1048.42 243.64 1053.12 243.04 1057.62 241.34C1060.62 240.24 1063.42 238.74 1066.02 236.84C1067.32 235.94 1068.52 234.84 1069.62 233.74C1070.72 232.64 1071.82 231.44 1072.72 230.14C1076.72 225.04 1079.22 219.04 1079.92 212.64Z" fill="#263238"/>
<path d="M1058.32 201.64C1057.02 208.14 1052.12 213.34 1045.62 214.94L1044.82 219.14C1044.52 220.94 1042.92 222.24 1041.12 222.24C1039.72 222.34 1038.52 221.24 1038.52 219.84C1038.52 219.64 1038.52 219.34 1038.62 219.14L1039.82 212.34C1039.82 212.24 1039.92 212.24 1039.92 212.24V212.14C1040.32 210.34 1041.82 209.04 1043.62 209.04C1047.82 208.94 1051.42 205.84 1052.22 201.74C1052.92 198.54 1050.82 195.34 1047.62 194.64C1047.12 194.54 1046.72 194.54 1046.22 194.54C1043.42 194.64 1040.92 195.94 1039.32 198.14C1038.12 199.64 1036.22 200.14 1034.82 199.24C1033.42 198.34 1033.32 196.44 1034.42 194.94C1037.52 190.84 1042.32 188.34 1047.42 188.14C1054.72 188.04 1059.72 194.14 1058.32 201.64ZM1043.62 226.64L1043.42 227.84C1043.12 229.64 1041.52 230.94 1039.62 231.04C1038.22 231.04 1037.02 229.94 1036.92 228.54C1036.92 228.34 1036.92 228.04 1037.02 227.84L1037.22 226.64C1037.52 224.84 1039.12 223.54 1040.92 223.44C1042.32 223.44 1043.52 224.54 1043.52 225.94C1043.62 226.24 1043.62 226.44 1043.62 226.64Z" fill="#2B94F9"/>
<path d="M1124.72 425.44C1101.42 435.94 1064.02 434.74 1041.32 422.84C1018.52 410.94 1019.02 392.84 1042.32 382.34C1065.62 371.84 1103.02 373.04 1125.72 384.94C1148.42 396.84 1148.02 415.04 1124.72 425.44Z" fill="#BB7E1B"/>
<path d="M1119.82 416.74C1099.42 426.44 1066.62 425.44 1046.72 414.44C1036.72 408.94 1031.92 401.94 1032.02 395.14C1032.02 393.84 1032.22 392.54 1032.62 391.24L1033.92 387.04L1039.12 369.84L1069.22 370.84C1079.22 369.64 1089.42 369.94 1099.32 371.84L1129.42 372.84C1129.42 372.94 1129.52 373.14 1129.52 373.24L1133.82 390.34L1134.92 394.64C1137.02 402.74 1131.92 411.04 1119.82 416.74Z" fill="#2B94F9"/>
<path opacity="0.1" d="M1119.82 416.74C1099.42 426.44 1066.62 425.44 1046.72 414.44C1036.72 408.94 1031.92 401.94 1032.02 395.14C1032.02 393.84 1032.22 392.54 1032.62 391.24L1033.92 387.04L1039.12 369.84L1069.22 370.84C1079.22 369.64 1089.42 369.94 1099.32 371.84L1129.42 372.84C1129.42 372.94 1129.52 373.14 1129.52 373.24L1133.82 390.34L1134.92 394.64C1137.02 402.74 1131.92 411.04 1119.82 416.74Z" fill="black"/>
<path d="M1129.52 372.84L1117.22 372.44C1116.12 369.14 1113.12 365.94 1108.22 363.34C1095.32 356.24 1074.12 355.54 1060.92 361.84C1056.02 364.24 1052.82 367.24 1051.52 370.44L1039.22 370.04C1042.62 358.74 1061.92 350.54 1084.92 351.34C1107.92 351.94 1126.72 361.34 1129.52 372.84Z" fill="#2B94F9"/>
<path d="M1129.92 376.14C1129.82 379.34 1128.52 382.44 1126.12 385.14C1119.02 393.34 1102.62 398.74 1083.72 398.14C1064.82 397.54 1048.82 391.14 1042.12 382.44C1039.92 379.54 1038.72 376.44 1038.72 373.14C1038.72 372.04 1038.92 370.94 1039.22 369.84L1051.52 370.24C1052.82 367.04 1056.02 364.04 1060.92 361.64C1074.12 355.34 1095.32 356.04 1108.22 363.14C1113.02 365.84 1116.02 369.04 1117.22 372.24L1129.52 372.64C1129.52 372.74 1129.62 372.94 1129.62 373.04C1129.82 374.14 1129.92 375.14 1129.92 376.14Z" fill="#2B94F9"/>
<path opacity="0.2" d="M1116.12 380.84C1114.52 383.34 1111.72 385.64 1107.72 387.64C1094.52 393.94 1073.32 393.24 1060.42 386.14C1056.52 383.94 1053.82 381.44 1052.32 378.84C1050.72 376.04 1050.52 373.14 1051.62 370.34C1052.92 367.14 1056.12 364.14 1061.02 361.74C1074.22 355.44 1095.42 356.14 1108.32 363.24C1113.12 365.94 1116.12 369.14 1117.32 372.34C1118.22 375.24 1117.82 378.14 1116.12 380.84Z" fill="black"/>
<path d="M1110.92 373.04C1110.72 373.04 1110.42 373.04 1110.22 373.04C1110.32 372.74 1110.32 372.54 1110.32 372.24C1110.42 370.04 1108.42 368.14 1105.92 368.04C1104.32 367.94 1102.82 368.64 1102.02 369.84C1101.12 365.94 1096.82 363.44 1092.52 364.24C1091.32 364.44 1090.12 364.94 1089.12 365.64C1088.82 363.44 1086.52 361.84 1084.02 362.14C1081.82 362.34 1080.12 364.04 1080.12 366.04C1080.12 366.34 1080.12 366.54 1080.22 366.84C1079.42 366.54 1078.52 366.34 1077.62 366.34C1075.12 366.24 1072.72 367.24 1071.12 369.04C1070.02 367.04 1067.22 366.24 1065.02 367.24C1063.52 367.94 1062.62 369.24 1062.62 370.64C1062.62 370.84 1062.62 370.94 1062.62 371.04C1058.72 369.04 1053.82 370.24 1051.72 373.64C1051.12 374.64 1050.72 375.74 1050.72 376.94C1050.62 380.84 1053.62 383.84 1058.12 385.94C1065.82 390.94 1074.92 393.74 1084.32 394.14C1096.92 394.54 1106.82 389.94 1111.22 387.84C1116.62 385.54 1118.62 384.24 1118.72 380.24C1118.82 376.44 1115.32 373.14 1110.92 373.04Z" fill="#B16668"/>
<path d="M1063.32 382.94C1061.62 381.34 1061.72 378.84 1063.52 377.34C1065.02 376.04 1067.32 375.94 1069.12 377.04C1070.22 377.74 1070.92 378.74 1071.02 379.94C1070.72 379.44 1070.32 379.04 1069.82 378.74C1067.92 377.54 1065.22 377.94 1063.92 379.64C1063.12 380.64 1062.92 381.84 1063.32 382.94Z" fill="#9A4A4D"/>
<path d="M1083.12 384.14C1083.42 381.94 1085.62 380.44 1088.12 380.74C1090.22 381.04 1091.82 382.54 1092.02 384.44C1092.12 385.64 1091.62 386.74 1090.72 387.54C1091.42 385.54 1090.22 383.44 1088.02 382.74C1086.22 382.24 1084.22 382.74 1083.12 384.14Z" fill="#9A4A4D"/>
<path d="M1068.32 378.04C1066.92 376.64 1066.92 374.54 1068.52 373.24C1070.02 371.94 1072.42 372.04 1073.92 373.44C1074.52 374.04 1074.82 374.74 1074.92 375.44C1073.92 373.94 1071.62 373.44 1069.92 374.34C1068.42 375.04 1067.82 376.64 1068.32 378.04Z" fill="#9A4A4D"/>
<path d="M1091.32 384.74C1090.62 382.94 1091.62 381.04 1093.62 380.44C1095.32 379.94 1097.22 380.54 1098.22 381.94C1098.82 382.84 1098.92 383.84 1098.52 384.74C1098.42 384.24 1098.32 383.84 1098.02 383.44C1097.02 381.94 1094.72 381.34 1093.02 382.24C1092.12 382.84 1091.42 383.74 1091.32 384.74Z" fill="#9A4A4D"/>
<path d="M1083.22 375.04C1082.52 373.24 1083.52 371.34 1085.52 370.74C1087.52 370.14 1089.72 371.14 1090.42 372.84C1090.72 373.54 1090.72 374.34 1090.42 375.04C1090.22 373.24 1088.42 371.94 1086.42 372.14C1084.82 372.24 1083.42 373.44 1083.22 375.04Z" fill="#9A4A4D"/>
<path d="M1089.62 372.94C1089.12 371.54 1089.92 369.94 1091.52 369.54C1092.82 369.14 1094.32 369.64 1095.12 370.74C1095.62 371.44 1095.72 372.24 1095.42 373.04C1095.22 371.64 1093.82 370.54 1092.22 370.74C1090.82 370.74 1089.82 371.64 1089.62 372.94Z" fill="#9A4A4D"/>
<path d="M1417.24 85.3401H1364.24V149.64H1417.24V85.3401Z" fill="#EBEBEB"/>
<path d="M1411.14 91.24H1370.24V143.74H1411.14V91.24Z" fill="white"/>
<path d="M1371.84 91.24H1370.24V143.74H1371.84V91.24Z" fill="#DBDBDB"/>
<path d="M1418.84 85.3401H1417.24V149.64H1418.84V85.3401Z" fill="#DBDBDB"/>
<path d="M1393.54 98.4399H1383.94V127.14H1393.54V98.4399Z" fill="#DBDBDB"/>
<path d="M446.54 59.04H393.54V123.34H446.54V59.04Z" fill="#EBEBEB"/>
<path d="M440.54 64.9399H399.64V117.44H440.54V64.9399Z" fill="white"/>
<path d="M448.14 59.04H446.54V123.34H448.14V59.04Z" fill="#DBDBDB"/>
<path d="M424.34 78.54H416.04V99.44H424.34V78.54Z" fill="#EBEBEB"/>
<path d="M433.04 91.24H410.84V105.64H433.04V91.24Z" stroke="#DBDBDB" stroke-miterlimit="10"/>
<path d="M312.79 183.29L299.69 183.59L292.99 183.69C290.79 183.79 288.49 183.69 286.29 183.79H285.89V183.39L285.79 172.19V171.69H286.29L299.49 171.79C303.89 171.79 308.29 171.89 312.69 171.99H312.99V172.29C312.99 174.19 312.89 176.09 312.89 177.99L312.79 183.29ZM312.79 183.29L312.69 177.69C312.69 175.79 312.59 173.99 312.59 172.19L312.89 172.49C308.49 172.49 304.09 172.69 299.69 172.69L286.49 172.79L286.99 172.29V183.49L286.49 183.09C288.69 183.09 290.89 183.09 292.99 183.09L299.59 183.19L312.79 183.29Z" fill="#EBEBEB"/>
<path d="M297.99 197.49L284.89 197.79L278.19 197.89C275.99 197.89 273.69 197.89 271.49 197.99H271.09V197.59L270.99 186.39V185.89H271.49L284.69 185.99C289.09 185.99 293.49 186.09 297.89 186.19H298.19V186.49C298.19 188.39 298.09 190.29 298.09 192.19L297.99 197.49ZM297.99 197.49L297.89 191.89C297.89 189.99 297.79 188.19 297.79 186.39L298.09 186.69C293.69 186.79 289.29 186.79 284.89 186.89L271.69 186.99L272.19 186.49V197.69L271.79 197.29C273.99 197.29 276.19 197.29 278.29 197.39L284.89 197.49H297.99Z" fill="#EBEBEB"/>
<path d="M283.29 183.29L270.19 183.59L263.49 183.69C261.29 183.79 258.99 183.69 256.79 183.79H256.39V183.39V172.19V171.69H256.89L270.09 171.79C274.49 171.79 278.89 171.89 283.29 171.99H283.59V172.29C283.59 174.19 283.49 176.09 283.49 177.99L283.29 183.29ZM283.29 183.29L283.19 177.69C283.19 175.79 283.09 173.99 283.09 172.19L283.39 172.49C278.99 172.49 274.59 172.69 270.19 172.69L256.99 172.79L257.49 172.29L257.39 183.49L256.99 183.09C259.19 183.09 261.39 183.09 263.49 183.09L270.09 183.19L283.29 183.29Z" fill="#EBEBEB"/>
<path d="M110.49 315.94L97.39 316.24L90.69 316.34C88.49 316.34 86.19 316.34 83.99 316.34H83.59V315.84L83.49 304.64V304.14H83.99L97.19 304.24C101.59 304.24 105.99 304.34 110.39 304.44H110.69V304.74C110.69 306.64 110.59 308.54 110.59 310.34L110.49 315.94ZM110.49 315.94L110.39 310.24C110.39 308.34 110.29 306.54 110.29 304.74L110.59 305.04C106.19 305.04 101.79 305.24 97.39 305.24L84.19 305.34L84.69 304.84V316.04L84.19 315.54C86.39 315.54 88.59 315.54 90.69 315.64L97.29 315.74L110.49 315.94Z" fill="#EBEBEB"/>
<path d="M95.69 330.04L82.59 330.34L75.89 330.44C73.69 330.44 71.39 330.44 69.19 330.44H68.79V330.04L68.69 318.84V318.34H69.19L82.39 318.44C86.79 318.44 91.19 318.54 95.59 318.64H95.89V318.94C95.89 320.84 95.79 322.74 95.79 324.54L95.69 330.04ZM95.69 330.04L95.59 324.34C95.59 322.44 95.49 320.64 95.49 318.84L95.79 319.14C91.39 319.14 86.99 319.34 82.59 319.34L69.39 319.44L69.89 318.94L69.69 330.04L69.19 329.54C71.39 329.54 73.59 329.54 75.69 329.64L82.29 329.74L95.69 330.04Z" fill="#EBEBEB"/>
<path d="M110.49 76.94L97.39 77.24L90.69 77.34C88.49 77.34 86.19 77.34 83.99 77.34H83.59V76.94L83.49 65.74V65.24H83.99L97.19 65.34C101.59 65.34 105.99 65.44 110.39 65.54H110.69V65.84C110.69 67.74 110.59 69.64 110.59 71.54L110.49 76.94ZM110.49 76.94L110.39 71.24C110.39 69.34 110.29 67.54 110.29 65.74L110.59 66.04C106.19 66.04 101.79 66.24 97.39 66.24L84.19 66.34L84.69 65.84V77.04L84.19 76.54C86.39 76.54 88.59 76.54 90.69 76.54L97.29 76.64L110.49 76.94Z" fill="#EBEBEB"/>
<path d="M1821.18 379.14L1808.08 379.44L1801.38 379.54C1799.18 379.54 1796.88 379.54 1794.68 379.54H1794.28V379.04L1794.18 367.84V367.34H1794.68L1807.88 367.44C1812.28 367.44 1816.68 367.54 1821.08 367.64H1821.38V367.94C1821.38 369.84 1821.28 371.74 1821.28 373.54L1821.18 379.14ZM1821.18 379.14L1821.08 373.44C1821.08 371.54 1820.98 369.74 1820.98 367.94L1821.28 368.24C1816.88 368.24 1812.48 368.44 1808.08 368.44L1794.88 368.54L1795.38 368.04V379.24L1794.88 378.74C1797.08 378.74 1799.28 378.74 1801.38 378.84L1807.98 378.94L1821.18 379.14Z" fill="#EBEBEB"/>
<path d="M1806.38 393.24L1793.28 393.54L1786.58 393.64C1784.38 393.64 1782.08 393.64 1779.88 393.64H1779.48V393.24L1779.38 382.04V381.54H1779.88L1793.08 381.64C1797.48 381.64 1801.88 381.74 1806.28 381.84H1806.58V382.14C1806.58 384.04 1806.48 385.94 1806.48 387.74L1806.38 393.24ZM1806.38 393.24L1806.28 387.54C1806.28 385.64 1806.18 383.84 1806.18 382.04L1806.48 382.34C1802.08 382.34 1797.68 382.54 1793.28 382.54L1780.08 382.64L1780.58 382.14L1780.38 393.24L1779.88 392.74C1782.08 392.74 1784.28 392.74 1786.38 392.84L1792.98 392.94L1806.38 393.24Z" fill="#EBEBEB"/>
<path d="M1826.18 90.1399L1813.08 90.4399L1806.38 90.5399C1804.18 90.5399 1801.88 90.5399 1799.68 90.5399H1799.28V90.1399L1799.18 78.9399V78.4399H1799.68L1812.88 78.5399C1817.28 78.5399 1821.68 78.6399 1826.08 78.7399H1826.38V79.0399C1826.38 80.9399 1826.28 82.8399 1826.28 84.7399L1826.18 90.1399ZM1826.18 90.1399L1826.08 84.4399C1826.08 82.5399 1825.98 80.7399 1825.98 78.9399L1826.28 79.2399C1821.88 79.2399 1817.48 79.4399 1813.08 79.4399L1799.88 79.5399L1800.38 79.0399V90.2399L1799.88 89.7399C1802.08 89.7399 1804.28 89.7399 1806.38 89.7399L1812.98 89.8399L1826.18 90.1399Z" fill="#EBEBEB"/>
<path d="M845.558 127.104H819.756L807.827 96.374C806.444 92.9164 803.202 91.1876 798.102 91.1876H789.285V127.104H765.298V34.7854H808.216C819.367 34.7854 827.751 37.2057 833.37 42.0464C838.989 46.8006 841.798 53.6293 841.798 62.5327C841.798 68.7564 840.112 74.1589 836.741 78.7402C833.456 83.2351 828.789 86.4334 822.738 88.3351C825.331 88.8537 827.665 90.0639 829.739 91.9656C831.814 93.8673 833.456 96.4172 834.667 99.6155L845.558 127.104ZM804.326 73.0352C809.512 73.0352 813.273 72.2572 815.606 70.7013C817.94 69.0589 819.107 66.5522 819.107 63.181C819.107 59.6369 817.94 57.087 815.606 55.531C813.359 53.9751 809.599 53.1971 804.326 53.1971H789.026V73.0352H804.326ZM925.93 61.2361V127.104H902.851V118.157C900.949 121.269 898.183 123.732 894.552 125.548C890.922 127.276 886.946 128.141 882.624 128.141C877.005 128.141 871.991 126.758 867.583 123.992C863.175 121.226 859.717 117.293 857.21 112.193C854.79 107.006 853.58 101.042 853.58 94.2995C853.58 87.4707 854.833 81.4199 857.34 76.147C859.847 70.8742 863.304 66.7683 867.713 63.8293C872.121 60.8903 877.091 59.4208 882.624 59.4208C886.946 59.4208 890.879 60.3717 894.423 62.2734C898.053 64.0886 900.862 66.5522 902.851 69.664V61.2361H925.93ZM889.885 110.637C894.034 110.637 897.232 109.21 899.479 106.358C901.727 103.505 902.851 99.3994 902.851 94.0401C902.851 88.5944 901.727 84.4453 899.479 81.5928C897.232 78.6538 894.034 77.1843 889.885 77.1843C885.822 77.1843 882.624 78.697 880.29 81.7224C877.956 84.6614 876.789 88.8537 876.789 94.2995C876.789 99.5723 877.913 103.635 880.16 106.488C882.408 109.254 885.649 110.637 889.885 110.637ZM999.004 120.232C996.497 122.479 993.169 124.294 989.02 125.677C984.957 126.974 980.592 127.752 975.924 128.011L975.276 132.29H976.313C979.857 132.29 982.623 133.111 984.612 134.753C986.6 136.396 987.594 138.6 987.594 141.366C987.594 144.91 985.995 147.72 982.796 149.794C979.598 151.955 974.973 153.036 968.923 153.036C967.021 153.036 964.903 152.819 962.569 152.387C960.322 152.042 958.247 151.523 956.346 150.831L957.772 142.403C962.44 143.614 965.897 144.219 968.145 144.219C971.862 144.219 973.72 143.268 973.72 141.366C973.72 139.897 972.337 139.162 969.571 139.162C968.534 139.162 967.151 139.378 965.422 139.81L962.829 136.958L964.125 127.492C955.481 126.023 948.782 122.393 944.028 116.601C939.274 110.81 936.897 103.376 936.897 94.2995C936.897 87.3842 938.409 81.2902 941.435 76.0174C944.547 70.7445 948.869 66.6818 954.401 63.8293C959.933 60.8903 966.329 59.4208 973.59 59.4208C978.431 59.4208 983.185 60.1556 987.853 61.6251C992.521 63.0081 996.238 64.9098 999.004 67.3301L993.039 83.5377C990.706 81.636 987.983 80.1233 984.871 78.9995C981.759 77.8758 978.777 77.314 975.924 77.314C971.084 77.314 967.367 78.697 964.774 81.4631C962.18 84.2292 960.884 88.3351 960.884 93.7808C960.884 99.313 962.18 103.505 964.774 106.358C967.367 109.124 971.127 110.507 976.054 110.507C978.907 110.507 981.845 109.945 984.871 108.821C987.983 107.698 990.706 106.185 993.039 104.283L999.004 120.232ZM1075.98 61.2361V127.104H1052.9V118.157C1051 121.269 1048.23 123.732 1044.6 125.548C1040.97 127.276 1036.99 128.141 1032.67 128.141C1027.05 128.141 1022.04 126.758 1017.63 123.992C1013.22 121.226 1009.76 117.293 1007.26 112.193C1004.84 107.006 1003.63 101.042 1003.63 94.2995C1003.63 87.4707 1004.88 81.4199 1007.39 76.147C1009.89 70.8742 1013.35 66.7683 1017.76 63.8293C1022.17 60.8903 1027.14 59.4208 1032.67 59.4208C1036.99 59.4208 1040.92 60.3717 1044.47 62.2734C1048.1 64.0886 1050.91 66.5522 1052.9 69.664V61.2361H1075.98ZM1039.93 110.637C1044.08 110.637 1047.28 109.21 1049.53 106.358C1051.77 103.505 1052.9 99.3994 1052.9 94.0401C1052.9 88.5944 1051.77 84.4453 1049.53 81.5928C1047.28 78.6538 1044.08 77.1843 1039.93 77.1843C1035.87 77.1843 1032.67 78.697 1030.34 81.7224C1028 84.6614 1026.84 88.8537 1026.84 94.2995C1026.84 99.5723 1027.96 103.635 1030.21 106.488C1032.45 109.254 1035.7 110.637 1039.93 110.637ZM1017.76 49.437C1017.76 42.4353 1019.19 37.2489 1022.04 33.8778C1024.89 30.4201 1028.52 28.6913 1032.93 28.6913C1034.4 28.6913 1035.83 28.9939 1037.21 29.599C1038.59 30.1176 1040.32 30.982 1042.39 32.1922C1044.04 33.143 1045.42 33.8778 1046.54 34.3964C1047.67 34.915 1048.75 35.1744 1049.79 35.1744C1051.25 35.1744 1052.46 34.6557 1053.42 33.6184C1054.37 32.5812 1054.97 31.0685 1055.23 29.0803H1064.57C1064.57 36.082 1063.14 41.3116 1060.29 44.7692C1057.44 48.1404 1053.8 49.826 1049.4 49.826C1047.93 49.826 1046.5 49.5667 1045.12 49.048C1043.73 48.4429 1042.01 47.5353 1039.93 46.3251C1038.29 45.3743 1036.91 44.6396 1035.78 44.1209C1034.66 43.6023 1033.58 43.343 1032.54 43.343C1031.07 43.343 1029.86 43.8616 1028.91 44.8989C1027.96 45.9362 1027.35 47.4489 1027.09 49.437H1017.76ZM1123.12 128.141C1115.77 128.141 1109.37 126.758 1103.93 123.992C1098.48 121.226 1094.29 117.249 1091.35 112.063C1088.41 106.877 1086.94 100.782 1086.94 93.7808C1086.94 86.7792 1088.41 80.6851 1091.35 75.4987C1094.29 70.3123 1098.48 66.3361 1103.93 63.57C1109.37 60.8039 1115.77 59.4208 1123.12 59.4208C1130.38 59.4208 1136.69 60.8471 1142.05 63.6996C1147.49 66.4657 1151.69 70.442 1154.63 75.6284C1157.56 80.7283 1159.03 86.7792 1159.03 93.7808C1159.03 100.782 1157.56 106.877 1154.63 112.063C1151.69 117.163 1147.49 121.139 1142.05 123.992C1136.69 126.758 1130.38 128.141 1123.12 128.141ZM1123.12 110.637C1131.59 110.637 1135.82 105.018 1135.82 93.7808C1135.82 88.0758 1134.74 83.8834 1132.58 81.2038C1130.51 78.4377 1127.35 77.0546 1123.12 77.0546C1118.8 77.0546 1115.55 78.4377 1113.39 81.2038C1111.23 83.8834 1110.15 88.0758 1110.15 93.7808C1110.15 99.5723 1111.23 103.851 1113.39 106.617C1115.55 109.297 1118.8 110.637 1123.12 110.637Z" fill="#2B94F9"/>
<path d="M2026.7 182.86H1590.15" stroke="#AD6C00" stroke-width="2" stroke-miterlimit="10" stroke-dasharray="12.3 12.3"/>
<path d="M1584 182.86H1578V176.86" stroke="#AD6C00" stroke-width="2" stroke-miterlimit="10"/>
<path d="M1578 164.72V-71.9299" stroke="#AD6C00" stroke-width="2" stroke-miterlimit="10" stroke-dasharray="12.14 12.14"/>
<path d="M201 127.91V133.91H195" stroke="#AD6C00" stroke-width="2" stroke-miterlimit="10"/>
<path d="M182.7 133.91H-253.85" stroke="#AD6C00" stroke-width="2" stroke-miterlimit="10" stroke-dasharray="12.3 12.3"/>
<path d="M201 -114.81V121.84" stroke="#AD6C00" stroke-width="2" stroke-miterlimit="10" stroke-dasharray="12.14 12.14"/>
<path d="M1194 433.85V439.85H1188" stroke="#AD6C00" stroke-width="2" stroke-miterlimit="10"/>
<path d="M1175.7 439.85H739.15" stroke="#AD6C00" stroke-width="2" stroke-miterlimit="10" stroke-dasharray="12.3 12.3"/>
<path d="M733 439.85H727V433.85" stroke="#AD6C00" stroke-width="2" stroke-miterlimit="10"/>
<path d="M727 421.52V181.16" stroke="#AD6C00" stroke-width="2" stroke-miterlimit="10" stroke-dasharray="12.33 12.33"/>
<path d="M727 175V169H733" stroke="#AD6C00" stroke-width="2" stroke-miterlimit="10"/>
<path d="M745.3 169H1181.85" stroke="#AD6C00" stroke-width="2" stroke-miterlimit="10" stroke-dasharray="12.3 12.3"/>
<path d="M1188 169H1194V175" stroke="#AD6C00" stroke-width="2" stroke-miterlimit="10"/>
<path d="M1194 187.33V427.69" stroke="#AD6C00" stroke-width="2" stroke-miterlimit="10" stroke-dasharray="12.33 12.33"/>
<path d="M929 209C929 209 948 194 976 196L988 243C988 243 996 240 1001 242C1006 244 1001 266 971 274C971 274 975 268 970 262C965 256 932 219 932 219L929 209Z" fill="white"/>
<path d="M956.82 247.11C956.82 247.11 984.44 238.16 985.72 234.08L988 243C988 243 990 249 986 252C982 255 969.67 261.61 969.67 261.61L956.82 247.11Z" fill="black"/>
</g>
<defs>
<clipPath id="clip0">
<rect width="1920" height="450" fill="white"/>
</clipPath>
</defs>
</svg>
