<svg width="38" height="38" viewBox="0 0 38 38" fill="none" xmlns="http://www.w3.org/2000/svg">
<path d="M34.5255 15.8991H33.2501V15.8334H19.0001V22.1667H27.9483C26.6428 25.8535 23.135 28.5001 19.0001 28.5001C13.7537 28.5001 9.50008 24.2465 9.50008 19.0001C9.50008 13.7537 13.7537 9.50008 19.0001 9.50008C21.4218 9.50008 23.625 10.4137 25.3025 11.906L29.781 7.4275C26.9532 4.79204 23.1706 3.16675 19.0001 3.16675C10.2561 3.16675 3.16675 10.2561 3.16675 19.0001C3.16675 27.744 10.2561 34.8334 19.0001 34.8334C27.744 34.8334 34.8334 27.744 34.8334 19.0001C34.8334 17.9385 34.7242 16.9022 34.5255 15.8991Z" fill="#FFC107"/>
<path d="M4.99219 11.6305L10.1942 15.4455C11.6018 11.9606 15.0107 9.50008 18.9999 9.50008C21.4216 9.50008 23.6249 10.4137 25.3024 11.906L29.7809 7.4275C26.953 4.79204 23.1704 3.16675 18.9999 3.16675C12.9184 3.16675 7.64427 6.60021 4.99219 11.6305Z" fill="#FF3D00"/>
<path d="M19 34.8334C23.0898 34.8334 26.8059 33.2683 29.6155 30.7231L24.7151 26.5763C23.1254 27.7804 21.1494 28.5001 19 28.5001C14.8818 28.5001 11.385 25.8741 10.0677 22.2095L4.90442 26.1876C7.52484 31.3152 12.8464 34.8334 19 34.8334Z" fill="#4CAF50"/>
<path d="M34.5254 15.899H33.25V15.8333H19V22.1666H27.9482C27.3212 23.9375 26.182 25.4647 24.7127 26.577C24.7135 26.5762 24.7143 26.5762 24.715 26.5754L29.6155 30.7221C29.2687 31.0372 34.8333 26.9166 34.8333 18.9999C34.8333 17.9383 34.7241 16.902 34.5254 15.899Z" fill="#1976D2"/>
</svg>
