<svg width="106" height="53" viewBox="0 0 106 53" fill="none" xmlns="http://www.w3.org/2000/svg">
<path d="M103.343 19.9278L85.034 2.52312C83.3196 0.893396 81.0413 0 78.6204 0C76.1995 0 73.9212 0.893396 72.2067 2.52312L53.4388 21.4986L33.7909 2.52312C32.0765 0.893396 29.7982 0 27.3773 0C24.9564 0 22.6781 0.893396 20.9636 2.52312L2.65428 19.9278C0.939843 21.5575 0 23.7232 0 26.0245C0 28.3257 0.939843 30.4915 2.65428 32.1212L20.9636 49.5258C22.6781 51.1555 24.9564 52.049 27.3773 52.049C29.7982 52.049 32.0765 51.1555 33.7909 49.5258C33.7909 49.5258 53.0319 30.7428 53.3025 30.3933C53.5731 30.7428 72.2047 49.5258 72.2047 49.5258C73.9191 51.1555 76.1974 52.049 78.6183 52.049C81.0392 52.049 83.3175 51.1555 85.032 49.5258L103.341 32.1212C106.886 28.7538 106.886 23.2873 103.343 19.9278ZM48.9895 26.0088L29.2673 45.2139C28.2593 46.1721 26.5077 46.1721 25.5079 45.2139L7.19857 27.8093C6.69457 27.3302 6.41571 26.694 6.41571 26.0225C6.41571 25.3431 6.69457 24.7148 7.19857 24.2357L25.5079 6.83108C26.0119 6.35198 26.6812 6.08691 27.3876 6.08691C28.1023 6.08691 28.7633 6.35198 29.2673 6.83108L48.9895 26.0088ZM98.8177 27.8113L80.5083 45.2159C79.4714 46.2016 77.7797 46.2016 76.749 45.2159L57.7414 26.0186L76.749 6.82126C77.2674 6.32842 77.9511 6.08494 78.6286 6.08494C79.3062 6.08494 79.9899 6.32842 80.5083 6.82126L98.8177 24.2318C99.8546 25.2155 99.8546 26.8236 98.8177 27.8113Z" fill="white"/>
</svg>
