<svg width="52" height="53" viewBox="0 0 52 53" fill="none" xmlns="http://www.w3.org/2000/svg">
<circle cx="25.6839" cy="26.4999" r="25.6839" fill="white"/>
<path d="M32.4485 12.7067H18.6553C14.8464 12.7067 11.7587 15.7944 11.7587 19.6033V33.3965C11.7587 37.2054 14.8464 40.2931 18.6553 40.2931H32.4485C36.2574 40.2931 39.3451 37.2054 39.3451 33.3965V19.6033C39.3451 15.7944 36.2574 12.7067 32.4485 12.7067Z" fill="#1F6EB8" stroke="#1F6EB8" stroke-width="2" stroke-linecap="round" stroke-linejoin="round"/>
<path d="M31.0693 25.6309C31.2395 26.7788 31.0434 27.9512 30.5089 28.9813C29.9744 30.0113 29.1288 30.8466 28.0922 31.3684C27.0556 31.8901 25.8809 32.0717 24.7351 31.8874C23.5894 31.703 22.5309 31.1621 21.7103 30.3415C20.8898 29.5209 20.3488 28.4624 20.1644 27.3167C19.9801 26.1709 20.1617 24.9962 20.6834 23.9596C21.2052 22.923 22.0405 22.0774 23.0706 21.5429C24.1006 21.0084 25.273 20.8123 26.421 20.9825C27.5919 21.1562 28.6759 21.7018 29.513 22.5388C30.35 23.3759 30.8956 24.4599 31.0693 25.6309Z" stroke="white" stroke-width="2" stroke-linecap="round" stroke-linejoin="round"/>
<path d="M33.1382 18.9136H33.1558" stroke="white" stroke-width="2" stroke-linecap="round" stroke-linejoin="round"/>
</svg>
