<svg width="217" height="35" viewBox="0 0 217 35" fill="none" xmlns="http://www.w3.org/2000/svg">
<path d="M0 34.9968V0H2.79927L2.86592 0.112169L3.33247 1.04691L11.8636 1.00952C21.0878 1.30864 23.1273 7.41566 22.994 10.4317V26.098C22.4608 33.4264 15.1294 35.084 11.5303 34.9968H0Z" fill="white"/>
<path d="M26.7369 25.7958C26.7369 24.2342 27.0486 22.8424 27.672 21.6203C28.2954 20.3982 29.1903 19.4525 30.3566 18.7832C31.5331 18.114 32.8955 17.7793 34.444 17.7793C36.646 17.7793 38.4408 18.4292 39.8283 19.7289C41.2259 21.0286 42.0052 22.7939 42.1661 25.0247L42.1962 26.1014C42.1962 28.5165 41.4974 30.4563 40.0998 31.9209C38.7022 33.3758 36.8269 34.1033 34.4741 34.1033C32.1212 34.1033 30.241 33.3758 28.8333 31.9209C27.4357 30.466 26.7369 28.4874 26.7369 25.985V25.7958ZM31.0957 26.1014C31.0957 27.5951 31.3873 28.7395 31.9705 29.5349C32.5536 30.3205 33.3882 30.7134 34.4741 30.7134C35.5299 30.7134 36.3544 30.3254 36.9476 29.5495C37.5408 28.7638 37.8375 27.5126 37.8375 25.7958C37.8375 24.3313 37.5408 23.1964 36.9476 22.3913C36.3544 21.5863 35.5198 21.1838 34.444 21.1838C33.3781 21.1838 32.5536 21.5863 31.9705 22.3913C31.3873 23.1867 31.0957 24.4234 31.0957 26.1014ZM48.9682 18.0703L49.104 19.8308C50.2602 18.4632 51.8237 17.7793 53.7945 17.7793C55.896 17.7793 57.3388 18.5796 58.1231 20.1799C59.2694 18.5796 60.9033 17.7793 63.0249 17.7793C64.7945 17.7793 66.1117 18.2789 66.9764 19.2779C67.8414 20.2672 68.2734 21.7609 68.2734 23.759V33.8123H63.8996V23.7735C63.8996 22.8812 63.7187 22.2313 63.3567 21.824C62.9947 21.4069 62.3562 21.1983 61.4412 21.1983C60.1341 21.1983 59.2292 21.7997 58.7264 23.0025L58.7415 33.8123H54.3827V23.7881C54.3827 22.8764 54.1967 22.2168 53.8247 21.8094C53.4527 21.4021 52.8192 21.1983 51.9243 21.1983C50.6876 21.1983 49.7927 21.693 49.2396 22.6823V33.8123H44.8809V18.0703H48.9682ZM84.5472 14.2003V18.0703H87.3376V21.1547H84.5472V29.0111C84.5472 29.5931 84.6631 30.0102 84.8941 30.2624C85.1258 30.5145 85.5676 30.6406 86.2216 30.6406C86.7038 30.6406 87.1317 30.6067 87.5037 30.5388V33.725C86.6487 33.9772 85.7693 34.1033 84.8641 34.1033C81.8071 34.1033 80.2486 32.6145 80.1886 29.6368V21.1547H77.8058V18.0703H80.1886V14.2003H84.5472ZM96.5531 30.7134C97.3571 30.7134 98.0111 30.5 98.5136 30.0732C99.0161 29.6465 99.2778 29.0791 99.2981 28.371H103.385C103.375 29.4379 103.073 30.4176 102.48 31.3099C101.887 32.1925 101.072 32.8812 100.036 33.3758C99.0112 33.8608 97.875 34.1033 96.6285 34.1033C94.2953 34.1033 92.4555 33.3904 91.1078 31.9646C89.7608 30.5291 89.0873 28.5504 89.0873 26.0286V25.7522C89.0873 23.3274 89.7559 21.3924 91.0931 19.9472C92.4304 18.502 94.2653 17.7793 96.5978 17.7793C98.6392 17.7793 100.273 18.3419 101.5 19.4671C102.737 20.5824 103.365 22.0713 103.385 23.9336H99.2981C99.2778 23.1188 99.0161 22.4593 98.5136 21.9549C98.0111 21.4408 97.3473 21.1838 96.5224 21.1838C95.5069 21.1838 94.7378 21.5427 94.215 22.2605C93.702 22.9685 93.4459 24.1227 93.4459 25.7231V26.1596C93.4459 27.7793 93.702 28.9433 94.215 29.6513C94.728 30.3593 95.5069 30.7134 96.5531 30.7134ZM110.127 19.7871C111.283 18.4486 112.736 17.7793 114.486 17.7793C118.025 17.7793 119.819 19.7629 119.87 23.7298V33.8123H115.511V23.8463C115.511 22.9442 115.31 22.2799 114.908 21.8531C114.506 21.4166 113.837 21.1983 112.902 21.1983C111.625 21.1983 110.7 21.6737 110.127 22.6242V33.8123H105.768V11.4651H110.127V19.7871ZM122.479 25.7958C122.479 24.2342 122.791 22.8424 123.415 21.6203C124.038 20.3982 124.933 19.4525 126.099 18.7832C127.275 18.114 128.638 17.7793 130.187 17.7793C132.389 17.7793 134.183 18.4292 135.57 19.7289C136.968 21.0286 137.747 22.7939 137.909 25.0247L137.939 26.1014C137.939 28.5165 137.24 30.4563 135.842 31.9209C134.445 33.3758 132.569 34.1033 130.217 34.1033C127.864 34.1033 125.984 33.3758 124.576 31.9209C123.178 30.466 122.479 28.4874 122.479 25.985V25.7958ZM126.838 26.1014C126.838 27.5951 127.13 28.7395 127.713 29.5349C128.296 30.3205 129.131 30.7134 130.217 30.7134C131.272 30.7134 132.097 30.3254 132.69 29.5495C133.283 28.7638 133.58 27.5126 133.58 25.7958C133.58 24.3313 133.283 23.1964 132.69 22.3913C132.097 21.5863 131.262 21.1838 130.187 21.1838C129.12 21.1838 128.296 21.5863 127.713 22.3913C127.13 23.1867 126.838 24.4234 126.838 26.1014ZM147.41 30.7134C148.215 30.7134 148.868 30.5 149.371 30.0732C149.874 29.6465 150.135 29.0791 150.155 28.371H154.242C154.233 29.4379 153.931 30.4176 153.338 31.3099C152.745 32.1925 151.93 32.8812 150.894 33.3758C149.868 33.8608 148.733 34.1033 147.486 34.1033C145.153 34.1033 143.313 33.3904 141.966 31.9646C140.618 30.5291 139.944 28.5504 139.944 26.0286V25.7522C139.944 23.3274 140.613 21.3924 141.95 19.9472C143.288 18.502 145.123 17.7793 147.456 17.7793C149.496 17.7793 151.13 18.3419 152.357 19.4671C153.594 20.5824 154.222 22.0713 154.242 23.9336H150.155C150.135 23.1188 149.874 22.4593 149.371 21.9549C148.868 21.4408 148.204 21.1838 147.38 21.1838C146.365 21.1838 145.596 21.5427 145.073 22.2605C144.56 22.9685 144.303 24.1227 144.303 25.7231V26.1596C144.303 27.7793 144.56 28.9433 145.073 29.6513C145.585 30.3593 146.365 30.7134 147.41 30.7134ZM160.984 19.7871C162.141 18.4486 163.593 17.7793 165.343 17.7793C168.882 17.7793 170.677 19.7629 170.728 23.7298V33.8123H166.369V23.8463C166.369 22.9442 166.168 22.2799 165.765 21.8531C165.363 21.4166 164.695 21.1983 163.759 21.1983C162.482 21.1983 161.557 21.6737 160.984 22.6242V33.8123H156.626V11.4651H160.984V19.7871ZM173.336 25.7958C173.336 24.2342 173.648 22.8424 174.272 21.6203C174.895 20.3982 175.79 19.4525 176.957 18.7832C178.133 18.114 179.495 17.7793 181.044 17.7793C183.246 17.7793 185.041 18.4292 186.428 19.7289C187.826 21.0286 188.605 22.7939 188.766 25.0247L188.796 26.1014C188.796 28.5165 188.097 30.4563 186.7 31.9209C185.302 33.3758 183.426 34.1033 181.074 34.1033C178.721 34.1033 176.841 33.3758 175.433 31.9209C174.036 30.466 173.336 28.4874 173.336 25.985V25.7958ZM177.696 26.1014C177.696 27.5951 177.987 28.7395 178.57 29.5349C179.154 30.3205 179.988 30.7134 181.074 30.7134C182.13 30.7134 182.954 30.3254 183.547 29.5495C184.14 28.7638 184.437 27.5126 184.437 25.7958C184.437 24.3313 184.14 23.1964 183.547 22.3913C182.954 21.5863 182.12 21.1838 181.044 21.1838C179.978 21.1838 179.154 21.5863 178.57 22.3913C177.987 23.1867 177.696 24.4234 177.696 26.1014ZM200.651 22.0131C200.058 21.9355 199.535 21.8967 199.082 21.8967C197.433 21.8967 196.352 22.435 195.839 23.5116V33.8123H191.481V18.0703H195.598L195.719 19.9472C196.594 18.502 197.805 17.7793 199.353 17.7793C199.836 17.7793 200.289 17.8424 200.711 17.9685L200.651 22.0131ZM201.541 25.7958C201.541 24.2342 201.852 22.8424 202.476 21.6203C203.099 20.3982 203.994 19.4525 205.16 18.7832C206.337 18.114 207.699 17.7793 209.247 17.7793C211.45 17.7793 213.244 18.4292 214.632 19.7289C216.03 21.0286 216.809 22.7939 216.97 25.0247L217 26.1014C217 28.5165 216.301 30.4563 214.903 31.9209C213.506 33.3758 211.631 34.1033 209.278 34.1033C206.925 34.1033 205.045 33.3758 203.637 31.9209C202.239 30.466 201.541 28.4874 201.541 25.985V25.7958ZM205.899 26.1014C205.899 27.5951 206.191 28.7395 206.774 29.5349C207.357 30.3205 208.192 30.7134 209.278 30.7134C210.333 30.7134 211.158 30.3254 211.751 29.5495C212.345 28.7638 212.641 27.5126 212.641 25.7958C212.641 24.3313 212.345 23.1964 211.751 22.3913C211.158 21.5863 210.324 21.1838 209.247 21.1838C208.182 21.1838 207.357 21.5863 206.774 22.3913C206.191 23.1867 205.899 24.4234 205.899 26.1014Z" fill="#F4F4F4"/>
<path fill-rule="evenodd" clip-rule="evenodd" d="M5 35L6.5398 12.1448C7.31073 11.7798 8.08173 11.4144 8.85232 11.049L11.891 10.9548L14.304 7L15.019 14.0625C15.5847 14.4349 16.1505 14.8075 16.7161 15.1801C17.1036 15.4353 17.491 15.6905 17.8784 15.9456C17.9985 16.5701 18.1415 17.7787 17.7 19.147C16.8792 21.6924 14.7022 22.7323 14.304 22.9139L15.4658 23.761L16.0164 34.3532C14.5427 34.8048 13.1402 34.9943 11.9777 35H5Z" fill="#2B94F9"/>
<path d="M16.6314 16.3743H14.0011C13.9434 16.5992 13.8744 17.0086 14.0011 17.4807C14.1344 17.9787 15.2568 18.764 15.3255 18.7948C15.3843 18.7746 16.3488 18.2754 16.5409 17.8495C16.8506 17.1615 16.6789 16.5307 16.6314 16.3743Z" fill="#263238"/>
<path d="M16.6314 16.3743H14.0011C13.9434 16.5992 13.8744 17.0086 14.0011 17.4807C14.1344 17.9787 15.2568 18.764 15.3255 18.7948C15.3843 18.7746 16.3488 18.2754 16.5409 17.8495C16.8506 17.1615 16.6789 16.5307 16.6314 16.3743Z" stroke="#263238" stroke-width="0.207899" stroke-miterlimit="10"/>
<path d="M7.85522 15.3605C7.85522 16.1749 8.19009 16.8353 8.60369 16.8353C9.01694 16.8353 9.35215 16.1749 9.35215 15.3605C9.35215 14.5457 9.01694 13.8853 8.60369 13.8853C8.19009 13.8853 7.85522 14.5457 7.85522 15.3605Z" fill="#211915"/>
<path d="M7.85522 15.3605C7.85522 16.1749 8.19009 16.8353 8.60369 16.8353C9.01694 16.8353 9.35215 16.1749 9.35215 15.3605C9.35215 14.5457 9.01694 13.8853 8.60369 13.8853C8.19009 13.8853 7.85522 14.5457 7.85522 15.3605Z" fill="#263238" stroke="#263238" stroke-width="0.207899" stroke-miterlimit="10"/>
<path d="M11.7332 15.3605C11.7332 16.1749 12.0681 16.8353 12.4817 16.8353C12.8949 16.8353 13.2297 16.1749 13.2297 15.3605C13.2297 14.5457 12.8949 13.8853 12.4817 13.8853C12.0681 13.8853 11.7332 14.5457 11.7332 15.3605Z" fill="#211915"/>
<path d="M11.7332 15.3605C11.7332 16.1749 12.0681 16.8353 12.4817 16.8353C12.8949 16.8353 13.2297 16.1749 13.2297 15.3605C13.2297 14.5457 12.8949 13.8853 12.4817 13.8853C12.0681 13.8853 11.7332 14.5457 11.7332 15.3605Z" fill="#263238" stroke="#263238" stroke-width="0.207899" stroke-miterlimit="10"/>
<path d="M2.56055 7.94227C2.96241 7.52856 3.59561 6.98598 4.49383 6.58055C5.3391 6.19834 6.12009 6.07343 6.67962 6.03442C7.25395 7.35479 7.82794 8.67437 8.40192 9.99476C8.49684 10.2131 8.59169 10.431 8.68661 10.6492C8.42551 11.0401 7.85034 11.7734 6.83959 12.1855C6.12169 12.4779 5.45872 12.4964 5.03333 12.4692C4.20919 10.9601 3.38506 9.45104 2.56055 7.94227Z" fill="#2B94F9"/>
<path d="M2.56055 7.94227C2.96241 7.52856 3.59561 6.98598 4.49383 6.58055C5.3391 6.19834 6.12009 6.07343 6.67962 6.03442C7.25395 7.35479 7.82794 8.67437 8.40192 9.99476C8.49684 10.2131 8.59169 10.431 8.68661 10.6492C8.42551 11.0401 7.85034 11.7734 6.83959 12.1855C6.12169 12.4779 5.45872 12.4964 5.03333 12.4692C4.20919 10.9601 3.38506 9.45104 2.56055 7.94227Z" stroke="#F4F4F4" stroke-width="0.207899" stroke-miterlimit="10"/>
<path d="M5.02225 12.3471L5.02235 12.347C5.74715 11.8692 6.58759 11.3737 8.65943 10.537C9.03512 10.3852 9.29372 10.287 9.47895 10.2469C9.47966 10.2468 9.48037 10.2466 9.48108 10.2465C9.46855 10.3567 9.43512 10.478 9.40235 10.5894L9.4023 10.5896C9.06272 11.7449 7.97914 12.3266 7.34485 12.6424L7.34433 12.6426C6.80942 12.9097 6.25039 13.1729 5.47101 13.1305L5.47054 13.1305C5.18232 13.1151 4.81228 13.0549 4.51726 12.9562C4.4281 12.9264 4.35446 12.8959 4.29625 12.8668C4.42833 12.7544 4.65162 12.5913 5.02225 12.3471ZM9.60926 10.2308C9.60911 10.2309 9.60678 10.2309 9.60271 10.2301C9.60738 10.2302 9.60942 10.2306 9.60926 10.2308ZM4.16019 12.7777C4.16024 12.7777 4.16089 12.7784 4.16195 12.7798C4.16067 12.7784 4.16013 12.7777 4.16019 12.7777Z" fill="#2B94F9" stroke="#2B94F9"/>
<path d="M4.74717 11.9296C3.81482 12.5438 3.65603 12.7444 3.69524 12.9379C3.78149 13.3634 4.79539 13.5951 5.44384 13.6298C6.36323 13.6798 7.0239 13.3614 7.56766 13.09C8.19064 12.7799 9.4747 12.1163 9.88201 10.7306C9.94985 10.5 10.0765 10.0504 9.8832 9.8377C9.67389 9.60677 9.20299 9.77818 8.47218 10.0733C6.37461 10.9205 5.50387 11.4308 4.74717 11.9296Z" stroke="#2B94F9" stroke-width="0.207899" stroke-miterlimit="10"/>
<path d="M4.36316 11.2419C4.92503 11.1367 5.63538 10.9401 6.39641 10.5587C7.13937 10.1855 7.71181 9.74582 8.12855 9.36597C8.31483 9.79348 8.50062 10.221 8.68648 10.6489C8.44102 11.0197 7.91882 11.6892 7.0092 12.1108C6.20902 12.4815 5.46251 12.4965 5.03321 12.4689L4.36316 11.2419Z" fill="#110D0D"/>
<path d="M4.36316 11.2419C4.92503 11.1367 5.63538 10.9401 6.39641 10.5587C7.13937 10.1855 7.71181 9.74582 8.12855 9.36597C8.31483 9.79348 8.50062 10.221 8.68648 10.6489C8.44102 11.0197 7.91882 11.6892 7.0092 12.1108C6.20902 12.4815 5.46251 12.4965 5.03321 12.4689L4.36316 11.2419Z" fill="#263238" stroke="#263238" stroke-width="0.207899" stroke-miterlimit="10"/>
<path d="M8.8961 22.7399C9.1796 22.5858 9.72141 22.9483 9.90846 23.0736C10.0277 23.1536 10.1429 23.2509 10.1492 23.2565C10.313 23.396 10.4327 23.5319 10.5134 23.6331C10.5675 23.7702 10.6562 24.0567 10.5346 24.3219C10.4895 24.4208 10.4075 24.5335 9.79239 24.8526C9.30935 25.1036 9.06591 25.2278 8.94984 25.1722C8.74793 25.0753 8.73502 24.7081 8.71932 23.9775C8.70361 23.225 8.69971 22.8467 8.8961 22.7399Z" fill="#263238"/>
<path d="M12.6436 22.7399C12.3602 22.5858 11.8187 22.9483 11.6317 23.0736C11.5121 23.1536 11.3973 23.2509 11.3906 23.2565C11.2271 23.396 11.1075 23.5319 11.0264 23.6331C10.9723 23.7702 10.8841 24.0567 11.0052 24.3219C11.0507 24.4208 11.1326 24.5335 11.7478 24.8526C12.2304 25.1036 12.4742 25.2278 12.5903 25.1722C12.7922 25.0753 12.8048 24.7081 12.8205 23.9775C12.8365 23.225 12.8405 22.8467 12.6436 22.7399Z" fill="#263238"/>
<path d="M10.4934 23.6033H11.1701V24.3078H10.4934V23.6033Z" fill="#263238"/>
</svg>
