<svg width="33" height="46" viewBox="0 0 33 46" fill="none" xmlns="http://www.w3.org/2000/svg">
<path d="M0 45.9958V0H3.95549L4.04967 0.147422L4.70892 1.37594L16.7637 1.3268C29.798 1.71992 32.6799 9.7463 32.4915 13.7103V34.3002C31.7381 43.9318 21.3785 46.1104 16.2929 45.9958H0Z" fill="white"/>
<path fill-rule="evenodd" clip-rule="evenodd" d="M8.5 46L10.4544 16.6148C11.4329 16.1455 12.4114 15.6757 13.3895 15.2059L17.2463 15.0848L20.3089 10L21.2164 19.0804C21.9344 19.5591 22.6525 20.0382 23.3705 20.5172C23.8623 20.8453 24.354 21.1735 24.8457 21.5014C24.9981 22.3045 25.1796 23.8583 24.6192 25.6176C23.5774 28.8903 20.8143 30.2273 20.3089 30.4607L21.7835 31.5498L22.4823 45.1684C20.6119 45.749 18.8318 45.9927 17.3563 46H8.5Z" fill="#2B94F9"/>
<path d="M23.3868 21.5H20.0895C20.0172 21.7788 19.9308 22.2862 20.0895 22.8713C20.2566 23.4886 21.6637 24.4619 21.7497 24.5C21.8234 24.4751 23.0325 23.8563 23.2733 23.3284C23.6615 22.4757 23.4463 21.6938 23.3868 21.5Z" fill="#211915"/>
<path d="M23.3868 21.5H20.0895C20.0172 21.7788 19.9308 22.2862 20.0895 22.8713C20.2566 23.4886 21.6637 24.4619 21.7497 24.5C21.8234 24.4751 23.0325 23.8563 23.2733 23.3284C23.6615 22.4757 23.4463 21.6938 23.3868 21.5Z" stroke="#211915" stroke-width="0.207899" stroke-miterlimit="10"/>
<path d="M12.5 20.2503C12.5 21.4926 12.9474 22.5 13.5 22.5C14.0521 22.5 14.5 21.4926 14.5 20.2503C14.5 19.0074 14.0521 18 13.5 18C12.9474 18 12.5 19.0074 12.5 20.2503Z" fill="#211915"/>
<path d="M12.5 20.2503C12.5 21.4926 12.9474 22.5 13.5 22.5C14.0521 22.5 14.5 21.4926 14.5 20.2503C14.5 19.0074 14.0521 18 13.5 18C12.9474 18 12.5 19.0074 12.5 20.2503Z" stroke="#211915" stroke-width="0.207899" stroke-miterlimit="10"/>
<path d="M17.5 20.2503C17.5 21.4926 17.9475 22.5 18.5003 22.5C19.0526 22.5 19.5 21.4926 19.5 20.2503C19.5 19.0074 19.0526 18 18.5003 18C17.9475 18 17.5 19.0074 17.5 20.2503Z" fill="#211915"/>
<path d="M17.5 20.2503C17.5 21.4926 17.9475 22.5 18.5003 22.5C19.0526 22.5 19.5 21.4926 19.5 20.2503C19.5 19.0074 19.0526 18 18.5003 18C17.9475 18 17.5 19.0074 17.5 20.2503Z" stroke="#211915" stroke-width="0.207899" stroke-miterlimit="10"/>
<path d="M6 10.5166C6.52479 9.9709 7.35168 9.25519 8.52467 8.72039C9.6285 8.21622 10.6484 8.05146 11.3791 8C12.1291 9.74169 12.8787 11.4823 13.6282 13.224C13.7522 13.5121 13.876 13.7994 14 14.0874C13.659 14.603 12.9079 15.5703 11.588 16.1139C10.6505 16.4996 9.78472 16.524 9.2292 16.4881C8.15296 14.4975 7.07673 12.5068 6 10.5166Z" fill="#2B94F9"/>
<path d="M6 10.5166C6.52479 9.9709 7.35168 9.25519 8.52467 8.72039C9.6285 8.21622 10.6484 8.05146 11.3791 8C12.1291 9.74169 12.8787 11.4823 13.6282 13.224C13.7522 13.5121 13.876 13.7994 14 14.0874C13.659 14.603 12.9079 15.5703 11.588 16.1139C10.6505 16.4996 9.78472 16.524 9.2292 16.4881C8.15296 14.4975 7.07673 12.5068 6 10.5166Z" stroke="#2B94F9" stroke-width="0.207899" stroke-miterlimit="10"/>
<path d="M9.17551 15.8161C8.13891 16.6027 7.96236 16.8595 8.00596 17.1073C8.10185 17.6522 9.22913 17.9489 9.9501 17.9933C10.9723 18.0574 11.7068 17.6497 12.3114 17.302C13.004 16.9049 14.4317 16.0552 14.8845 14.2807C14.96 13.9855 15.1008 13.4097 14.8859 13.1373C14.6531 12.8416 14.1296 13.0611 13.3171 13.4391C10.9849 14.5239 10.0168 15.1773 9.17551 15.8161Z" fill="#2B94F9"/>
<path d="M9.17551 15.8161C8.13891 16.6027 7.96236 16.8595 8.00596 17.1073C8.10185 17.6522 9.22913 17.9489 9.9501 17.9933C10.9723 18.0574 11.7068 17.6497 12.3114 17.302C13.004 16.9049 14.4317 16.0552 14.8845 14.2807C14.96 13.9855 15.1008 13.4097 14.8859 13.1373C14.6531 12.8416 14.1296 13.0611 13.3171 13.4391C10.9849 14.5239 10.0168 15.1773 9.17551 15.8161Z" stroke="#2B94F9" stroke-width="0.207899" stroke-miterlimit="10"/>
<path d="M8 14.7127C8.77977 14.5606 9.76562 14.2763 10.8218 13.7248C11.8529 13.1851 12.6473 12.5493 13.2257 12C13.4842 12.6182 13.7421 13.2364 14 13.8552C13.6593 14.3914 12.9346 15.3595 11.6722 15.9691C10.5617 16.5053 9.5257 16.5269 8.9299 16.4871L8 14.7127Z" fill="black"/>
<path d="M8 14.7127C8.77977 14.5606 9.76562 14.2763 10.8218 13.7248C11.8529 13.1851 12.6473 12.5493 13.2257 12C13.4842 12.6182 13.7421 13.2364 14 13.8552C13.6593 14.3914 12.9346 15.3595 11.6722 15.9691C10.5617 16.5053 9.5257 16.5269 8.9299 16.4871L8 14.7127Z" stroke="black" stroke-width="0.207899" stroke-miterlimit="10"/>
<path d="M14.1949 30.0528C14.496 29.8357 15.0715 30.3467 15.2701 30.5233C15.3968 30.636 15.5192 30.7733 15.5258 30.781C15.6999 30.9777 15.827 31.1693 15.9127 31.312C15.9702 31.5053 16.0643 31.9091 15.9352 32.2829C15.8873 32.4223 15.8003 32.5812 15.1469 33.0311C14.6338 33.3849 14.3752 33.5599 14.2519 33.4816C14.0375 33.3449 14.0238 32.8273 14.0071 31.7975C13.9904 30.7366 13.9863 30.2034 14.1949 30.0528Z" fill="black"/>
<path d="M18.3049 30.0528C18.0038 29.8357 17.4287 30.3467 17.23 30.5233C17.103 30.636 16.981 30.7733 16.974 30.781C16.8003 30.9777 16.6733 31.1693 16.5871 31.312C16.5296 31.5053 16.4359 31.9091 16.5646 32.2829C16.6129 32.4223 16.6999 32.5812 17.3533 33.0311C17.8659 33.3849 18.1249 33.5599 18.2482 33.4816C18.4627 33.3449 18.476 32.8273 18.4927 31.7975C18.5098 30.7366 18.5139 30.2034 18.3049 30.0528Z" fill="black"/>
<path d="M16 31H17V32H16V31Z" fill="black"/>
</svg>
