<svg width="332" height="312" viewBox="0 0 332 312" fill="none" xmlns="http://www.w3.org/2000/svg">
<rect width="332" height="312" fill="#CE5151"/>
<path d="M137.386 150.184H139.708V163H137.386V150.184ZM152.96 153.676C153.992 153.676 154.76 153.988 155.264 154.612C155.768 155.224 156.02 156.16 156.02 157.42V163H153.77V157.492C153.77 156.772 153.65 156.256 153.41 155.944C153.182 155.62 152.798 155.458 152.258 155.458C151.634 155.458 151.142 155.68 150.782 156.124C150.434 156.556 150.26 157.156 150.26 157.924V163H148.01V157.492C148.01 156.784 147.884 156.268 147.632 155.944C147.392 155.62 147.008 155.458 146.48 155.458C145.856 155.458 145.364 155.68 145.004 156.124C144.644 156.556 144.464 157.156 144.464 157.924V163H142.232V156.484C142.232 155.524 142.184 154.666 142.088 153.91H144.194L144.356 155.35C144.62 154.81 144.998 154.396 145.49 154.108C145.994 153.82 146.57 153.676 147.218 153.676C148.61 153.676 149.516 154.252 149.936 155.404C150.224 154.864 150.632 154.444 151.16 154.144C151.7 153.832 152.3 153.676 152.96 153.676ZM167.025 153.91V163H164.811V161.542C164.535 162.046 164.139 162.442 163.623 162.73C163.107 163.006 162.519 163.144 161.859 163.144C161.067 163.144 160.365 162.952 159.753 162.568C159.141 162.184 158.667 161.638 158.331 160.93C157.995 160.222 157.827 159.4 157.827 158.464C157.827 157.528 157.995 156.7 158.331 155.98C158.679 155.248 159.159 154.684 159.771 154.288C160.383 153.88 161.079 153.676 161.859 153.676C162.519 153.676 163.107 153.82 163.623 154.108C164.139 154.384 164.535 154.774 164.811 155.278V153.91H167.025ZM162.471 161.38C163.215 161.38 163.791 161.122 164.199 160.606C164.607 160.09 164.811 159.364 164.811 158.428C164.811 157.468 164.607 156.73 164.199 156.214C163.791 155.698 163.209 155.44 162.453 155.44C161.709 155.44 161.127 155.71 160.707 156.25C160.299 156.778 160.095 157.516 160.095 158.464C160.095 159.4 160.299 160.12 160.707 160.624C161.127 161.128 161.715 161.38 162.471 161.38ZM178.17 153.91V162.712C178.17 164.128 177.78 165.202 177 165.934C176.22 166.666 175.074 167.032 173.562 167.032C172.158 167.032 170.922 166.738 169.854 166.15L170.214 164.44C171.318 165.016 172.416 165.304 173.508 165.304C175.128 165.304 175.938 164.5 175.938 162.892V161.092C175.662 161.584 175.26 161.986 174.732 162.298C174.204 162.598 173.61 162.748 172.95 162.748C172.158 162.748 171.45 162.562 170.826 162.19C170.214 161.806 169.734 161.272 169.386 160.588C169.05 159.892 168.882 159.1 168.882 158.212C168.882 157.324 169.05 156.538 169.386 155.854C169.734 155.158 170.214 154.624 170.826 154.252C171.45 153.868 172.158 153.676 172.95 153.676C173.622 153.676 174.216 153.82 174.732 154.108C175.26 154.384 175.662 154.774 175.938 155.278V153.91H178.17ZM173.544 160.984C174.288 160.984 174.87 160.738 175.29 160.246C175.722 159.754 175.938 159.076 175.938 158.212C175.938 157.348 175.728 156.67 175.308 156.178C174.888 155.686 174.3 155.44 173.544 155.44C172.8 155.44 172.212 155.686 171.78 156.178C171.36 156.67 171.15 157.348 171.15 158.212C171.15 159.076 171.36 159.754 171.78 160.246C172.212 160.738 172.8 160.984 173.544 160.984ZM188.466 158.572H182.202C182.25 159.544 182.49 160.264 182.922 160.732C183.366 161.188 184.02 161.416 184.884 161.416C185.88 161.416 186.804 161.092 187.656 160.444L188.304 161.992C187.872 162.34 187.338 162.622 186.702 162.838C186.078 163.042 185.442 163.144 184.794 163.144C183.306 163.144 182.136 162.724 181.284 161.884C180.432 161.044 180.006 159.892 180.006 158.428C180.006 157.504 180.192 156.682 180.564 155.962C180.936 155.242 181.458 154.684 182.13 154.288C182.802 153.88 183.564 153.676 184.416 153.676C185.664 153.676 186.648 154.084 187.368 154.9C188.1 155.704 188.466 156.814 188.466 158.23V158.572ZM184.47 155.296C183.87 155.296 183.378 155.476 182.994 155.836C182.622 156.184 182.382 156.694 182.274 157.366H186.504C186.432 156.682 186.222 156.166 185.874 155.818C185.538 155.47 185.07 155.296 184.47 155.296Z" fill="black"/>
</svg>
