<svg width="50" height="50" viewBox="0 0 50 50" fill="none" xmlns="http://www.w3.org/2000/svg">
<path d="M34.375 19.5833L15.625 8.77075" stroke="black" stroke-width="3" stroke-linecap="round" stroke-linejoin="round"/>
<path d="M43.75 33.3334V16.6667C43.7492 15.9361 43.5564 15.2184 43.1907 14.5858C42.825 13.9532 42.2995 13.4279 41.6667 13.0626L27.0833 4.72925C26.4499 4.36355 25.7314 4.17102 25 4.17102C24.2686 4.17102 23.5501 4.36355 22.9167 4.72925L8.33333 13.0626C7.70055 13.4279 7.17496 13.9532 6.80929 14.5858C6.44363 15.2184 6.25075 15.9361 6.25 16.6667V33.3334C6.25075 34.0641 6.44363 34.7817 6.80929 35.4143C7.17496 36.0469 7.70055 36.5722 8.33333 36.9376L22.9167 45.2709C23.5501 45.6366 24.2686 45.8291 25 45.8291C25.7314 45.8291 26.4499 45.6366 27.0833 45.2709L41.6667 36.9376C42.2995 36.5722 42.825 36.0469 43.1907 35.4143C43.5564 34.7817 43.7492 34.0641 43.75 33.3334Z" stroke="black" stroke-width="3" stroke-linecap="round" stroke-linejoin="round"/>
<path d="M6.8125 14.5L25 25.0208L43.1875 14.5" stroke="black" stroke-width="3" stroke-linecap="round" stroke-linejoin="round"/>
<path d="M25 46V25" stroke="black" stroke-width="3" stroke-linecap="round" stroke-linejoin="round"/>
</svg>
