<svg width="50" height="50" viewBox="0 0 50 50" fill="none" xmlns="http://www.w3.org/2000/svg">
<path d="M33.3334 6.25H2.08337V33.3333H33.3334V6.25Z" stroke="black" stroke-width="3" stroke-linecap="round" stroke-linejoin="round"/>
<path d="M33.3334 16.6666H41.6667L47.9167 22.9166V33.3333H33.3334V16.6666Z" stroke="black" stroke-width="3" stroke-linecap="round" stroke-linejoin="round"/>
<path d="M11.4583 43.75C14.3348 43.75 16.6667 41.4182 16.6667 38.5417C16.6667 35.6652 14.3348 33.3334 11.4583 33.3334C8.58185 33.3334 6.25 35.6652 6.25 38.5417C6.25 41.4182 8.58185 43.75 11.4583 43.75Z" stroke="black" stroke-width="3" stroke-linecap="round" stroke-linejoin="round"/>
<path d="M38.5417 43.75C41.4182 43.75 43.75 41.4182 43.75 38.5417C43.75 35.6652 41.4182 33.3334 38.5417 33.3334C35.6652 33.3334 33.3334 35.6652 33.3334 38.5417C33.3334 41.4182 35.6652 43.75 38.5417 43.75Z" stroke="black" stroke-width="3" stroke-linecap="round" stroke-linejoin="round"/>
</svg>
