<svg width="52" height="53" viewBox="0 0 52 53" fill="none" xmlns="http://www.w3.org/2000/svg">
<circle cx="25.6839" cy="26.4999" r="25.6839" fill="white"/>
<path d="M41 14.0146C39.6506 14.9933 38.1566 15.7419 36.5755 16.2315C35.7268 15.2281 34.599 14.5169 33.3445 14.1941C32.0899 13.8714 30.7693 13.9525 29.5611 14.4267C28.3529 14.9009 27.3155 15.7452 26.5892 16.8455C25.8629 17.9457 25.4827 19.2488 25.5 20.5784V22.0274C23.0237 22.0934 20.57 21.5287 18.3573 20.3835C16.1447 19.2383 14.2418 17.5481 12.8182 15.4635C12.8182 15.4635 7.18182 28.5044 19.8636 34.3003C16.9617 36.3259 13.5046 37.3416 10 37.1982C22.6818 44.4431 38.1818 37.1982 38.1818 20.535C38.1805 20.1314 38.1428 19.7288 38.0691 19.3323C39.5072 17.8739 40.5221 16.0326 41 14.0146Z" fill="#1F6EB8" stroke="#1F6EB8" stroke-width="2" stroke-linecap="round" stroke-linejoin="round"/>
</svg>
